<svg xmlns="http://www.w3.org/2000/svg" xmlns:xlink="http://www.w3.org/1999/xlink" width="500" zoomAndPan="magnify" viewBox="0 0 375 374.999991" height="500" preserveAspectRatio="xMidYMid meet" version="1.0"><defs><clipPath id="a9ea0bf794"><path d="M 0 9.203125 L 375 9.203125 L 375 365.453125 L 0 365.453125 Z M 0 9.203125 " clip-rule="nonzero"/></clipPath></defs><g clip-path="url(#a9ea0bf794)"><path fill="#df7919" d="M 187.5 9.203125 L 235.785156 117.660156 C 237.640625 121.824219 240.5625 125.429688 244.253906 128.109375 C 247.945312 130.789062 252.277344 132.449219 256.816406 132.925781 L 374.984375 145.289062 L 286.660156 224.683594 C 283.265625 227.730469 280.738281 231.621094 279.328125 235.957031 C 277.917969 240.292969 277.675781 244.921875 278.625 249.382812 L 303.371094 365.476562 L 200.496094 306.089844 C 196.546875 303.808594 192.0625 302.609375 187.5 302.609375 C 182.9375 302.609375 178.453125 303.808594 174.503906 306.089844 L 71.628906 365.476562 L 96.375 249.382812 C 97.324219 244.921875 97.082031 240.292969 95.671875 235.957031 C 94.261719 231.621094 91.734375 227.730469 88.34375 224.683594 L 0.0195312 145.289062 L 118.183594 132.925781 C 122.722656 132.449219 127.054688 130.789062 130.746094 128.109375 C 134.441406 125.429688 137.359375 121.824219 139.214844 117.660156 Z M 187.5 9.203125 " fill-opacity="1" fill-rule="evenodd"/></g></svg>