<svg xmlns="http://www.w3.org/2000/svg" viewBox="0 0 187.47 30.82"><defs><style>.cls-1{fill:#fff;}</style></defs><title>logo-transparent-cheercareer-white-all</title><g id="レイヤー_2" data-name="レイヤー 2"><g id="cheercareer-white-all"><path class="cls-1" d="M76.37,20.68l2.84.9A6.43,6.43,0,0,1,77,25.11a6.18,6.18,0,0,1-3.85,1.15,6.25,6.25,0,0,1-4.75-2,7.57,7.57,0,0,1-1.86-5.4,7.92,7.92,0,0,1,1.87-5.62,6.43,6.43,0,0,1,4.92-2,6,6,0,0,1,4.32,1.57,5.71,5.71,0,0,1,1.48,2.67l-2.9.69a3,3,0,0,0-3-2.43,3.31,3.31,0,0,0-2.62,1.16,5.67,5.67,0,0,0-1,3.75,6.07,6.07,0,0,0,1,3.91,3.2,3.2,0,0,0,2.57,1.17,2.93,2.93,0,0,0,2-.74A4.27,4.27,0,0,0,76.37,20.68Z"/><path class="cls-1" d="M84.47,11.52v5.33a4.11,4.11,0,0,1,3.22-1.58,4.06,4.06,0,0,1,1.73.36,2.86,2.86,0,0,1,1.16.91,3.22,3.22,0,0,1,.53,1.23,10.38,10.38,0,0,1,.15,2.08V26H88.48V20.47a8.46,8.46,0,0,0-.16-2.1,1.4,1.4,0,0,0-.56-.71,1.83,1.83,0,0,0-1-.26,2.24,2.24,0,0,0-1.24.34,2,2,0,0,0-.8,1,6.28,6.28,0,0,0-.25,2V26H81.69V11.52Z"/><path class="cls-1" d="M100.16,22.67l2.77.47a4.55,4.55,0,0,1-1.69,2.31,4.89,4.89,0,0,1-2.88.8,4.72,4.72,0,0,1-4.06-1.79,6,6,0,0,1-1-3.62,5.81,5.81,0,0,1,1.37-4.09,4.51,4.51,0,0,1,3.45-1.48,4.69,4.69,0,0,1,3.7,1.55,6.85,6.85,0,0,1,1.29,4.74h-7a2.86,2.86,0,0,0,.67,1.93,2.14,2.14,0,0,0,1.61.68,1.66,1.66,0,0,0,1.09-.35A2.25,2.25,0,0,0,100.16,22.67Zm.15-2.81A2.65,2.65,0,0,0,99.69,18a1.9,1.9,0,0,0-1.44-.63,2,2,0,0,0-1.51.66,2.57,2.57,0,0,0-.58,1.8Z"/><path class="cls-1" d="M111.42,22.67l2.77.47a4.55,4.55,0,0,1-1.69,2.31,4.87,4.87,0,0,1-2.88.8,4.69,4.69,0,0,1-4.05-1.79,6,6,0,0,1-1-3.62,5.81,5.81,0,0,1,1.36-4.09,4.51,4.51,0,0,1,3.45-1.48,4.66,4.66,0,0,1,3.7,1.55,6.8,6.8,0,0,1,1.3,4.74h-7a2.81,2.81,0,0,0,.67,1.93,2.12,2.12,0,0,0,1.6.68,1.69,1.69,0,0,0,1.1-.35A2.17,2.17,0,0,0,111.42,22.67Zm.16-2.81A2.7,2.7,0,0,0,111,18a2,2,0,0,0-2.95,0,2.52,2.52,0,0,0-.58,1.8Z"/><path class="cls-1" d="M119.26,26h-2.78V15.51h2.59V17a4.49,4.49,0,0,1,1.19-1.39,2.21,2.21,0,0,1,1.2-.34,3.55,3.55,0,0,1,1.83.53l-.86,2.42a2.45,2.45,0,0,0-1.31-.45,1.51,1.51,0,0,0-1,.32,2.14,2.14,0,0,0-.63,1.16,16,16,0,0,0-.24,3.52Z"/><path class="cls-1" d="M133.78,20.68l2.84.9a6.43,6.43,0,0,1-2.17,3.53,6.18,6.18,0,0,1-3.85,1.15,6.25,6.25,0,0,1-4.75-2,7.57,7.57,0,0,1-1.86-5.4,7.92,7.92,0,0,1,1.87-5.62,6.43,6.43,0,0,1,4.92-2,6,6,0,0,1,4.32,1.57,5.71,5.71,0,0,1,1.48,2.67l-2.9.69a3,3,0,0,0-3.05-2.43A3.31,3.31,0,0,0,128,14.93a5.67,5.67,0,0,0-1,3.75,6.07,6.07,0,0,0,1,3.91,3.2,3.2,0,0,0,2.57,1.17,3,3,0,0,0,2-.74A4.33,4.33,0,0,0,133.78,20.68Z"/><path class="cls-1" d="M141.19,18.71l-2.52-.45A3.92,3.92,0,0,1,140.13,16a5.42,5.42,0,0,1,3.09-.73,6.72,6.72,0,0,1,2.77.44,2.86,2.86,0,0,1,1.28,1.12,5.85,5.85,0,0,1,.37,2.49l0,3.24a11.1,11.1,0,0,0,.13,2,6.15,6.15,0,0,0,.5,1.41h-2.75c-.07-.18-.16-.45-.27-.82,0-.16-.08-.27-.09-.32a5.09,5.09,0,0,1-1.53,1,4.22,4.22,0,0,1-1.73.35,3.59,3.59,0,0,1-2.56-.88,3.13,3.13,0,0,1-.5-3.81A2.75,2.75,0,0,1,140,20.49a9.45,9.45,0,0,1,2.21-.65,14.88,14.88,0,0,0,2.7-.68v-.28a1.42,1.42,0,0,0-.4-1.14A2.34,2.34,0,0,0,143,17.4a1.66,1.66,0,0,0-1.83,1.31ZM144.91,21c-.36.12-.92.26-1.69.43a5,5,0,0,0-1.52.48,1.16,1.16,0,0,0-.54,1,1.34,1.34,0,0,0,.44,1,1.51,1.51,0,0,0,1.1.42,2.43,2.43,0,0,0,1.44-.49,1.8,1.8,0,0,0,.66-.92,5.64,5.64,0,0,0,.11-1.36Z"/><path class="cls-1" d="M153,26h-2.78V15.51h2.58V17A4.49,4.49,0,0,1,154,15.61a2.21,2.21,0,0,1,1.2-.34,3.49,3.49,0,0,1,1.83.53l-.86,2.42a2.45,2.45,0,0,0-1.3-.45,1.51,1.51,0,0,0-1,.32,2.15,2.15,0,0,0-.64,1.16,16.19,16.19,0,0,0-.23,3.52Z"/><path class="cls-1" d="M164.34,22.67l2.77.47a4.55,4.55,0,0,1-1.69,2.31,4.87,4.87,0,0,1-2.88.8,4.7,4.7,0,0,1-4-1.79,6,6,0,0,1-1-3.62,5.81,5.81,0,0,1,1.36-4.09,4.51,4.51,0,0,1,3.45-1.48,4.66,4.66,0,0,1,3.7,1.55,6.8,6.8,0,0,1,1.3,4.74h-7a2.81,2.81,0,0,0,.67,1.93,2.12,2.12,0,0,0,1.6.68,1.69,1.69,0,0,0,1.1-.35A2.17,2.17,0,0,0,164.34,22.67Zm.16-2.81a2.7,2.7,0,0,0-.62-1.83,2,2,0,0,0-2.95,0,2.52,2.52,0,0,0-.58,1.8Z"/><path class="cls-1" d="M175.61,22.67l2.77.47a4.55,4.55,0,0,1-1.69,2.31,4.89,4.89,0,0,1-2.88.8,4.72,4.72,0,0,1-4.06-1.79,6,6,0,0,1-1-3.62,5.81,5.81,0,0,1,1.37-4.09,4.51,4.51,0,0,1,3.45-1.48,4.69,4.69,0,0,1,3.7,1.55,6.85,6.85,0,0,1,1.29,4.74h-7a2.86,2.86,0,0,0,.67,1.93,2.14,2.14,0,0,0,1.61.68,1.66,1.66,0,0,0,1.09-.35A2.25,2.25,0,0,0,175.61,22.67Zm.15-2.81a2.65,2.65,0,0,0-.62-1.83,1.9,1.9,0,0,0-1.44-.63,2,2,0,0,0-1.51.66,2.57,2.57,0,0,0-.58,1.8Z"/><path class="cls-1" d="M183.45,26h-2.78V15.51h2.58V17a4.49,4.49,0,0,1,1.19-1.39,2.26,2.26,0,0,1,1.2-.34,3.49,3.49,0,0,1,1.83.53l-.86,2.42a2.45,2.45,0,0,0-1.3-.45,1.51,1.51,0,0,0-1,.32,2.21,2.21,0,0,0-.64,1.16,16.88,16.88,0,0,0-.23,3.52Z"/><path class="cls-1" d="M60,19a19.11,19.11,0,0,0-2.08-4.07c-.09-.13-.56-1.17-.9-1.92-.17-.37-.34-.74-.49-1.05-.5-1.07-1.43-1.57-2.26-1.21a1.6,1.6,0,0,0-.76.68A11.92,11.92,0,0,0,52.1,8.19l-3.2,3.07a7.54,7.54,0,0,1,.7,2.39,1.52,1.52,0,0,0-.68.69l-.1.21a1.53,1.53,0,0,0-.06,1.22,1.6,1.6,0,0,0-.75.73l-.1.21a1.54,1.54,0,0,0-.09,1.13,1.47,1.47,0,0,0-.83.76l-.11.21a1.59,1.59,0,0,0-.09,1.11,1.52,1.52,0,0,0-.81.73l-.15.31c0,.06,0,.13-.07.19A7.51,7.51,0,1,1,46.4,8.37l3.14-3A11.82,11.82,0,0,0,30.36,15.44,11.82,11.82,0,0,0,8.24,14.31a1.61,1.61,0,0,0-.8-.76c-.85-.37-1.81.14-2.33,1.25l-.49,1.07c-.36.77-.84,1.83-.93,2A19.27,19.27,0,0,0,1.55,22L0,22.77l.44.91,1.78-.86a.51.51,0,0,0,.28-.38,18.09,18.09,0,0,1,1.94-3.92,13.77,13.77,0,0,0,1.1-2.22c.17-.38.35-.75.49-1.07s.61-.92,1-.74.5.35.43,1.3a6.91,6.91,0,0,1-1,2.9.51.51,0,0,0,0,.64.52.52,0,0,0,.63.15l4.15-2a.58.58,0,0,1,.76.27l.11.22a.57.57,0,0,1-.26.76l-.12.05-1.05.52a.51.51,0,1,0,.44.91l1-.51a.56.56,0,0,1,.76.26l.11.22a.57.57,0,0,1-.26.76l-1,.51a.51.51,0,0,0,.44.92l1.05-.51a.57.57,0,0,1,.76.26l.11.22a.57.57,0,0,1-.26.76l-1.05.51a.51.51,0,1,0,.44.91l1-.51.05,0a.52.52,0,0,1,.69.24l.15.32a.51.51,0,0,1-.24.68L9.29,28A5.17,5.17,0,0,1,8,28.38l-2.66.45-.14,0-1.77.87.44.91,1.71-.83,2.59-.44a6.12,6.12,0,0,0,1.6-.52L11.47,28a11.81,11.81,0,0,0,19.22-6.73H26.25a7.53,7.53,0,0,1-7.16,5.23,7.32,7.32,0,0,1-3.24-.76,1.53,1.53,0,0,0,.24-1.69l-.16-.32A1.52,1.52,0,0,0,15.1,23,1.53,1.53,0,0,0,15,21.87l-.1-.23a1.63,1.63,0,0,0-.86-.78A1.54,1.54,0,0,0,14,19.71l-.1-.22a1.54,1.54,0,0,0-.77-.74A1.58,1.58,0,0,0,13,17.49l-.1-.22a1.6,1.6,0,0,0-.9-.8,7.5,7.5,0,0,1,14.42,1h4.24A11.81,11.81,0,0,0,49,24.18l3,1.46a5.45,5.45,0,0,0,1.57.51l2.52.43,1.66.81.44-.89-1.73-.84-.13,0-2.6-.45a4.87,4.87,0,0,1-1.29-.42L47,22.07a.51.51,0,0,1-.23-.67l.15-.31a.51.51,0,0,1,.68-.23l0,0,1,.5a.49.49,0,1,0,.43-.89L48,20a.55.55,0,0,1-.26-.74l.11-.22a.55.55,0,0,1,.74-.25l1,.5a.5.5,0,0,0,.44-.89l-1-.5a.55.55,0,0,1-.25-.74l.1-.22a.55.55,0,0,1,.74-.25l1,.5a.5.5,0,0,0,.43-.9l-1-.5-.12,0a.55.55,0,0,1-.25-.74l.1-.22a.55.55,0,0,1,.74-.25l4.05,2a.49.49,0,0,0,.6-.76,6.73,6.73,0,0,1-1-2.83c-.07-.93.17-1.17.42-1.27s.8.34,1,.72.32.68.48,1a13.32,13.32,0,0,0,1.08,2.17,18.2,18.2,0,0,1,1.89,3.83.47.47,0,0,0,.27.37l1.73.84.43-.89Z"/><polygon class="cls-1" points="24.31 3.91 24.8 3.37 25.5 3.51 25.13 2.96 25.53 2.44 24.85 2.51 24.48 1.97 24.36 2.6 23.63 2.75 24.29 3.16 24.31 3.91"/><polygon class="cls-1" points="22.9 5.82 23.16 6.53 23.45 5.85 24.15 5.76 23.63 5.36 23.84 4.75 23.22 5.02 22.7 4.63 22.79 5.27 22.14 5.64 22.9 5.82"/><polygon class="cls-1" points="30 2.66 30.64 2.29 31.25 2.64 31.07 2.01 31.61 1.64 30.95 1.49 30.77 0.87 30.45 1.44 29.71 1.35 30.22 1.94 30 2.66"/><polygon class="cls-1" points="29.05 7.45 27.21 1.77 26.23 2.1 28.62 7.54 29.05 7.45"/><polygon class="cls-1" points="30.52 8.32 30.33 3.28 29.6 3.2 30.14 8.48 30.52 8.32"/><polygon class="cls-1" points="24.47 6.07 27.54 8.29 27.98 7.94 24.77 5.35 24.47 6.07"/><path class="cls-1" d="M27.33,1.05a.6.6,0,0,0,0-.86.6.6,0,0,0-.86,0,.61.61,0,0,0,0,.86A.6.6,0,0,0,27.33,1.05Z"/><path class="cls-1" d="M31.17,5.77a.61.61,0,0,0,.88-.84.61.61,0,0,0-.88.84Z"/></g></g></svg>