<svg xmlns="http://www.w3.org/2000/svg" xmlns:xlink="http://www.w3.org/1999/xlink" width="500" zoomAndPan="magnify" viewBox="0 0 375 374.999991" height="500" preserveAspectRatio="xMidYMid meet" version="1.0"><defs><clipPath id="667a81034d"><path d="M 59.125 60.625 L 315.667969 60.625 L 315.667969 317.167969 L 59.125 317.167969 Z M 59.125 60.625 " clip-rule="nonzero"/></clipPath></defs><g clip-path="url(#667a81034d)"><path fill="#df7919" d="M 187.398438 317.167969 C 153.148438 317.167969 120.902344 303.839844 96.703125 279.589844 C 72.453125 255.390625 59.125 223.144531 59.125 188.898438 C 59.125 154.652344 72.453125 122.402344 96.703125 98.203125 C 120.902344 73.957031 153.148438 60.625 187.398438 60.625 C 221.644531 60.625 253.890625 73.957031 278.089844 98.203125 C 302.339844 122.453125 315.667969 154.652344 315.667969 188.898438 C 315.667969 223.144531 302.339844 255.390625 278.089844 279.589844 C 253.890625 303.839844 221.644531 317.167969 187.398438 317.167969 Z M 187.398438 68.316406 C 155.199219 68.316406 124.902344 80.875 102.140625 103.640625 C 79.375 126.402344 66.816406 156.703125 66.816406 188.898438 C 66.816406 221.09375 79.375 251.394531 102.140625 274.15625 C 124.902344 296.917969 155.199219 309.480469 187.398438 309.480469 C 219.59375 309.480469 249.890625 296.917969 272.65625 274.15625 C 295.417969 251.394531 307.980469 221.09375 307.980469 188.898438 C 307.980469 156.703125 295.417969 126.402344 272.65625 103.640625 C 249.890625 80.875 219.59375 68.316406 187.398438 68.316406 Z M 187.398438 68.316406 " fill-opacity="1" fill-rule="nonzero"/></g><path stroke-linecap="butt" transform="matrix(8.249999, 0, 0, 8.249999, 0.0000045, 187.499988)" fill="none" stroke-linejoin="miter" d="M -0.000000545455 0.00000149242 L 45.454548 0.00000149242 " stroke="#df7919" stroke-width="1" stroke-opacity="1" stroke-miterlimit="4"/><path stroke-linecap="butt" transform="matrix(0.000000000000000551, -9.000843, 8.999999, 0.000000000000000551, 187.496769, 376.482398)" fill="none" stroke-linejoin="miter" d="M 0.000214305 -0.0000750264 L 41.66341 -0.0000750264 " stroke="#df7919" stroke-width="1" stroke-opacity="1" stroke-miterlimit="4"/></svg>