<svg xmlns="http://www.w3.org/2000/svg" xmlns:xlink="http://www.w3.org/1999/xlink" width="500" zoomAndPan="magnify" viewBox="0 0 375 374.999991" height="500" preserveAspectRatio="xMidYMid meet" version="1.0"><defs><g/></defs><g fill="#ffffff" fill-opacity="1"><g transform="translate(11.385631, 171.20282)"><g><path d="M 34.40625 -11.265625 C 34.40625 -8.898438 33.875 -6.929688 32.8125 -5.359375 C 31.75 -3.785156 30.347656 -2.550781 28.609375 -1.65625 C 26.878906 -0.757812 24.992188 -0.128906 22.953125 0.234375 C 20.910156 0.609375 18.910156 0.796875 16.953125 0.796875 C 15.441406 0.796875 13.992188 0.582031 12.609375 0.15625 C 11.222656 -0.269531 9.816406 -0.75 8.390625 -1.28125 C 7.691406 -1.53125 7.003906 -1.6875 6.328125 -1.75 C 5.660156 -1.8125 4.957031 -1.84375 4.21875 -1.84375 C 4.101562 -2.820312 3.984375 -3.789062 3.859375 -4.75 C 3.734375 -5.707031 3.585938 -6.675781 3.421875 -7.65625 C 3.347656 -8.34375 3.25 -9.015625 3.125 -9.671875 C 3 -10.328125 2.9375 -10.976562 2.9375 -11.625 C 2.9375 -12.195312 3.046875 -12.664062 3.265625 -13.03125 C 3.492188 -13.40625 3.914062 -13.59375 4.53125 -13.59375 C 5.101562 -13.59375 5.539062 -13.476562 5.84375 -13.25 C 6.15625 -13.03125 6.390625 -12.65625 6.546875 -12.125 C 6.835938 -11.382812 7.070312 -10.625 7.25 -9.84375 C 7.4375 -9.070312 7.671875 -8.300781 7.953125 -7.53125 C 8.648438 -5.613281 9.785156 -4.082031 11.359375 -2.9375 C 12.929688 -1.789062 14.773438 -1.21875 16.890625 -1.21875 C 19.753906 -1.21875 21.945312 -2.046875 23.46875 -3.703125 C 25 -5.359375 25.765625 -7.59375 25.765625 -10.40625 C 25.765625 -12.039062 25.414062 -13.394531 24.71875 -14.46875 C 24.03125 -15.550781 23.132812 -16.476562 22.03125 -17.25 C 20.9375 -18.03125 19.753906 -18.769531 18.484375 -19.46875 C 17.304688 -20.125 16.101562 -20.734375 14.875 -21.296875 C 13.65625 -21.867188 12.453125 -22.460938 11.265625 -23.078125 C 9.960938 -23.773438 8.6875 -24.644531 7.4375 -25.6875 C 6.195312 -26.726562 5.175781 -27.929688 4.375 -29.296875 C 3.582031 -30.660156 3.1875 -32.140625 3.1875 -33.734375 C 3.1875 -36.421875 3.890625 -38.640625 5.296875 -40.390625 C 6.703125 -42.148438 8.515625 -43.457031 10.734375 -44.3125 C 12.960938 -45.175781 15.28125 -45.609375 17.6875 -45.609375 C 19.238281 -45.609375 20.738281 -45.394531 22.1875 -44.96875 C 23.632812 -44.539062 25.054688 -44.039062 26.453125 -43.46875 C 26.898438 -43.300781 27.316406 -43.175781 27.703125 -43.09375 C 28.085938 -43.007812 28.503906 -42.96875 28.953125 -42.96875 C 29.285156 -42.96875 29.59375 -42.976562 29.875 -43 C 30.15625 -43.019531 30.441406 -43.050781 30.734375 -43.09375 C 30.859375 -41.789062 31 -40.484375 31.15625 -39.171875 C 31.320312 -37.867188 31.488281 -36.566406 31.65625 -35.265625 C 31.695312 -35.054688 31.722656 -34.835938 31.734375 -34.609375 C 31.753906 -34.390625 31.765625 -34.175781 31.765625 -33.96875 C 31.765625 -33.40625 31.640625 -32.890625 31.390625 -32.421875 C 31.148438 -31.953125 30.6875 -31.71875 30 -31.71875 C 29.46875 -31.71875 29.078125 -31.835938 28.828125 -32.078125 C 28.585938 -32.328125 28.363281 -32.675781 28.15625 -33.125 C 27.664062 -34.382812 27.195312 -35.625 26.75 -36.84375 C 26.300781 -38.070312 25.648438 -39.21875 24.796875 -40.28125 C 23.898438 -41.425781 22.773438 -42.273438 21.421875 -42.828125 C 20.078125 -43.378906 18.691406 -43.65625 17.265625 -43.65625 C 15.878906 -43.65625 14.710938 -43.273438 13.765625 -42.515625 C 12.828125 -41.765625 12.132812 -40.796875 11.6875 -39.609375 C 11.238281 -38.421875 11.015625 -37.195312 11.015625 -35.9375 C 11.015625 -33.976562 11.535156 -32.457031 12.578125 -31.375 C 13.617188 -30.289062 14.914062 -29.300781 16.46875 -28.40625 C 17.320312 -27.957031 18.1875 -27.519531 19.0625 -27.09375 C 19.945312 -26.664062 20.816406 -26.242188 21.671875 -25.828125 C 23.710938 -24.890625 25.703125 -23.757812 27.640625 -22.4375 C 29.578125 -21.113281 31.1875 -19.539062 32.46875 -17.71875 C 33.757812 -15.90625 34.40625 -13.753906 34.40625 -11.265625 Z M 34.40625 -11.265625 "/></g></g></g><g fill="#ffffff" fill-opacity="1"><g transform="translate(47.74158, 171.20282)"><g><path d="M 26.875 -16.09375 C 26.875 -17.445312 26.78125 -18.988281 26.59375 -20.71875 C 26.414062 -22.457031 26.039062 -24.140625 25.46875 -25.765625 C 24.894531 -27.398438 24.066406 -28.757812 22.984375 -29.84375 C 21.898438 -30.925781 20.441406 -31.46875 18.609375 -31.46875 C 16.929688 -31.46875 15.582031 -30.9375 14.5625 -29.875 C 13.550781 -28.8125 12.769531 -27.484375 12.21875 -25.890625 C 11.664062 -24.304688 11.285156 -22.664062 11.078125 -20.96875 C 10.878906 -19.269531 10.78125 -17.8125 10.78125 -16.59375 C 10.78125 -15.238281 10.867188 -13.691406 11.046875 -11.953125 C 11.234375 -10.222656 11.613281 -8.539062 12.1875 -6.90625 C 12.757812 -5.28125 13.59375 -3.9375 14.6875 -2.875 C 15.789062 -1.8125 17.257812 -1.28125 19.09375 -1.28125 C 20.8125 -1.28125 22.191406 -1.800781 23.234375 -2.84375 C 24.273438 -3.882812 25.0625 -5.191406 25.59375 -6.765625 C 26.125 -8.335938 26.46875 -9.96875 26.625 -11.65625 C 26.789062 -13.351562 26.875 -14.832031 26.875 -16.09375 Z M 35.203125 -15.796875 C 35.203125 -12.648438 34.488281 -9.863281 33.0625 -7.4375 C 31.632812 -5.007812 29.6875 -3.097656 27.21875 -1.703125 C 24.75 -0.316406 21.941406 0.375 18.796875 0.375 C 15.648438 0.375 12.875 -0.359375 10.46875 -1.828125 C 8.0625 -3.304688 6.171875 -5.289062 4.796875 -7.78125 C 3.429688 -10.269531 2.75 -13.0625 2.75 -16.15625 C 2.75 -19.382812 3.421875 -22.273438 4.765625 -24.828125 C 6.117188 -27.378906 8.019531 -29.398438 10.46875 -30.890625 C 12.914062 -32.378906 15.769531 -33.125 19.03125 -33.125 C 22.625 -33.125 25.613281 -32.394531 28 -30.9375 C 30.394531 -29.488281 32.191406 -27.46875 33.390625 -24.875 C 34.597656 -22.289062 35.203125 -19.265625 35.203125 -15.796875 Z M 35.203125 -15.796875 "/></g></g></g><g fill="#ffffff" fill-opacity="1"><g transform="translate(85.688863, 171.20282)"><g><path d="M 32.390625 -8.140625 C 32.390625 -7.972656 32.347656 -7.796875 32.265625 -7.609375 C 32.179688 -7.429688 32.097656 -7.257812 32.015625 -7.09375 C 31.160156 -5.507812 30.007812 -4.175781 28.5625 -3.09375 C 27.113281 -2.007812 25.507812 -1.179688 23.75 -0.609375 C 22 -0.0351562 20.242188 0.25 18.484375 0.25 C 16.972656 0.25 15.316406 0.00390625 13.515625 -0.484375 C 11.722656 -0.972656 10.175781 -1.671875 8.875 -2.578125 C 6.75 -4.117188 5.1875 -6.03125 4.1875 -8.3125 C 3.1875 -10.601562 2.6875 -13.035156 2.6875 -15.609375 C 2.6875 -18.796875 3.296875 -21.703125 4.515625 -24.328125 C 5.742188 -26.960938 7.53125 -29.078125 9.875 -30.671875 C 12.226562 -32.265625 15.078125 -33.0625 18.421875 -33.0625 C 19.648438 -33.0625 20.816406 -32.875 21.921875 -32.5 C 22.242188 -32.425781 22.757812 -32.210938 23.46875 -31.859375 C 24.1875 -31.515625 24.890625 -31.195312 25.578125 -30.90625 C 26.273438 -30.625 26.707031 -30.484375 26.875 -30.484375 C 27.320312 -30.484375 27.757812 -30.65625 28.1875 -31 C 28.613281 -31.351562 28.953125 -31.53125 29.203125 -31.53125 C 29.441406 -31.53125 29.5625 -31.363281 29.5625 -31.03125 C 29.644531 -30.625 29.6875 -30.1875 29.6875 -29.71875 C 29.6875 -29.25 29.707031 -28.789062 29.75 -28.34375 C 29.789062 -27.363281 29.863281 -26.382812 29.96875 -25.40625 C 30.070312 -24.425781 30.125 -23.445312 30.125 -22.46875 C 30.125 -21.9375 30.039062 -21.46875 29.875 -21.0625 C 29.707031 -20.65625 29.320312 -20.453125 28.71875 -20.453125 C 28.300781 -20.453125 27.988281 -20.550781 27.78125 -20.75 C 27.582031 -20.957031 27.441406 -21.222656 27.359375 -21.546875 C 26.867188 -23.015625 26.367188 -24.453125 25.859375 -25.859375 C 25.347656 -27.273438 24.503906 -28.507812 23.328125 -29.5625 C 22.878906 -30.007812 22.234375 -30.425781 21.390625 -30.8125 C 20.554688 -31.207031 19.8125 -31.40625 19.15625 -31.40625 C 17.445312 -31.40625 16.039062 -30.851562 14.9375 -29.75 C 13.832031 -28.644531 12.953125 -27.273438 12.296875 -25.640625 C 11.648438 -24.015625 11.191406 -22.332031 10.921875 -20.59375 C 10.660156 -18.863281 10.53125 -17.347656 10.53125 -16.046875 C 10.53125 -14.816406 10.671875 -13.394531 10.953125 -11.78125 C 11.242188 -10.164062 11.710938 -8.613281 12.359375 -7.125 C 13.015625 -5.632812 13.875 -4.390625 14.9375 -3.390625 C 16 -2.390625 17.328125 -1.890625 18.921875 -1.890625 C 20.429688 -1.890625 21.957031 -2.21875 23.5 -2.875 C 25.050781 -3.53125 26.359375 -4.390625 27.421875 -5.453125 C 27.753906 -5.773438 28.09375 -6.117188 28.4375 -6.484375 C 28.78125 -6.859375 29.097656 -7.25 29.390625 -7.65625 C 29.503906 -7.851562 29.625 -8.046875 29.75 -8.234375 C 29.875 -8.421875 30.019531 -8.59375 30.1875 -8.75 C 30.507812 -9.082031 30.832031 -9.25 31.15625 -9.25 C 31.488281 -9.25 31.773438 -9.144531 32.015625 -8.9375 C 32.265625 -8.726562 32.390625 -8.460938 32.390625 -8.140625 Z M 32.390625 -8.140625 "/></g></g></g><g fill="#ffffff" fill-opacity="1"><g transform="translate(118.739729, 171.20282)"><g><path d="M 19.21875 -0.734375 C 19.21875 -0.078125 18.894531 0.25 18.25 0.25 C 17.0625 0.25 15.851562 0.195312 14.625 0.09375 C 13.40625 -0.0078125 12.179688 -0.0625 10.953125 -0.0625 C 9.734375 -0.0625 8.5 -0.0078125 7.25 0.09375 C 6.007812 0.195312 4.773438 0.25 3.546875 0.25 C 3.265625 0.25 3.0625 0.140625 2.9375 -0.078125 C 2.8125 -0.304688 2.75 -0.523438 2.75 -0.734375 C 2.75 -1.390625 3.054688 -1.71875 3.671875 -1.71875 C 4.078125 -1.71875 4.460938 -1.695312 4.828125 -1.65625 C 5.203125 -1.613281 5.570312 -1.59375 5.9375 -1.59375 C 6.425781 -1.59375 6.738281 -1.753906 6.875 -2.078125 C 7.019531 -2.410156 7.09375 -2.78125 7.09375 -3.1875 L 7.09375 -27.484375 C 7.09375 -27.890625 7.050781 -28.347656 6.96875 -28.859375 C 6.894531 -29.367188 6.570312 -29.625 6 -29.625 C 5.46875 -29.625 4.914062 -29.582031 4.34375 -29.5 C 3.769531 -29.425781 3.195312 -29.390625 2.625 -29.390625 C 2.382812 -29.390625 2.148438 -29.445312 1.921875 -29.5625 C 1.703125 -29.6875 1.59375 -29.894531 1.59375 -30.1875 C 1.59375 -30.71875 1.859375 -31.0625 2.390625 -31.21875 C 2.835938 -31.300781 3.316406 -31.375 3.828125 -31.4375 C 4.335938 -31.5 4.816406 -31.550781 5.265625 -31.59375 C 6.691406 -31.789062 8.085938 -32.039062 9.453125 -32.34375 C 10.828125 -32.65625 12.207031 -32.972656 13.59375 -33.296875 C 13.71875 -33.296875 13.835938 -33.304688 13.953125 -33.328125 C 14.078125 -33.347656 14.179688 -33.359375 14.265625 -33.359375 C 14.878906 -33.359375 15.1875 -33.113281 15.1875 -32.625 C 15.1875 -27.726562 15.164062 -22.820312 15.125 -17.90625 C 15.082031 -12.988281 15.0625 -8.082031 15.0625 -3.1875 C 15.0625 -2.445312 15.222656 -1.984375 15.546875 -1.796875 C 15.878906 -1.617188 16.296875 -1.550781 16.796875 -1.59375 C 17.304688 -1.632812 17.828125 -1.65625 18.359375 -1.65625 C 18.929688 -1.65625 19.21875 -1.347656 19.21875 -0.734375 Z M 15.359375 -42.796875 C 15.359375 -41.523438 14.898438 -40.421875 13.984375 -39.484375 C 13.066406 -38.546875 11.957031 -38.078125 10.65625 -38.078125 C 9.382812 -38.078125 8.28125 -38.546875 7.34375 -39.484375 C 6.40625 -40.421875 5.9375 -41.523438 5.9375 -42.796875 C 5.9375 -44.097656 6.40625 -45.207031 7.34375 -46.125 C 8.28125 -47.039062 9.382812 -47.5 10.65625 -47.5 C 11.957031 -47.5 13.066406 -47.039062 13.984375 -46.125 C 14.898438 -45.207031 15.359375 -44.097656 15.359375 -42.796875 Z M 15.359375 -42.796875 "/></g></g></g><g fill="#ffffff" fill-opacity="1"><g transform="translate(139.794357, 171.20282)"><g><path d="M 20.453125 -6.484375 C 20.328125 -8.398438 20.242188 -10.328125 20.203125 -12.265625 C 20.160156 -14.210938 20.160156 -16.164062 20.203125 -18.125 C 18.523438 -17.832031 16.898438 -17.304688 15.328125 -16.546875 C 13.765625 -15.796875 12.472656 -14.785156 11.453125 -13.515625 C 10.429688 -12.253906 9.921875 -10.644531 9.921875 -8.6875 C 9.921875 -7.875 10.03125 -7 10.25 -6.0625 C 10.476562 -5.125 10.882812 -4.335938 11.46875 -3.703125 C 12.0625 -3.066406 12.867188 -2.75 13.890625 -2.75 C 14.628906 -2.75 15.40625 -2.960938 16.21875 -3.390625 C 17.039062 -3.828125 17.828125 -4.328125 18.578125 -4.890625 C 19.335938 -5.460938 19.960938 -5.992188 20.453125 -6.484375 Z M 33.0625 -2.875 C 33.0625 -2.707031 32.988281 -2.519531 32.84375 -2.3125 C 32.695312 -2.113281 32.566406 -1.957031 32.453125 -1.84375 C 31.179688 -0.363281 29.546875 0.375 27.546875 0.375 C 25.796875 0.375 24.390625 -0.0078125 23.328125 -0.78125 C 22.265625 -1.5625 21.445312 -2.769531 20.875 -4.40625 C 19.570312 -3.019531 18.175781 -1.914062 16.6875 -1.09375 C 15.195312 -0.28125 13.453125 0.125 11.453125 0.125 C 10.023438 0.125 8.582031 -0.191406 7.125 -0.828125 C 5.675781 -1.460938 4.472656 -2.367188 3.515625 -3.546875 C 2.554688 -4.734375 2.078125 -6.101562 2.078125 -7.65625 C 2.078125 -9.207031 2.472656 -10.582031 3.265625 -11.78125 C 4.066406 -12.988281 5.078125 -14.03125 6.296875 -14.90625 C 7.523438 -15.78125 8.773438 -16.503906 10.046875 -17.078125 C 11.671875 -17.773438 13.335938 -18.316406 15.046875 -18.703125 C 16.765625 -19.085938 18.484375 -19.484375 20.203125 -19.890625 L 20.203125 -20.140625 C 20.203125 -20.878906 20.191406 -21.867188 20.171875 -23.109375 C 20.148438 -24.359375 20.015625 -25.601562 19.765625 -26.84375 C 19.523438 -28.09375 19.117188 -29.15625 18.546875 -30.03125 C 17.972656 -30.90625 17.140625 -31.34375 16.046875 -31.34375 C 14.773438 -31.34375 13.640625 -30.972656 12.640625 -30.234375 C 11.640625 -29.503906 10.9375 -28.523438 10.53125 -27.296875 C 10.445312 -26.929688 10.382812 -26.578125 10.34375 -26.234375 C 10.300781 -25.890625 10.238281 -25.53125 10.15625 -25.15625 C 10.082031 -24.507812 9.707031 -24.070312 9.03125 -23.84375 C 8.351562 -23.625 7.726562 -23.515625 7.15625 -23.515625 C 6.46875 -23.515625 5.796875 -23.664062 5.140625 -23.96875 C 4.484375 -24.269531 4.15625 -24.851562 4.15625 -25.71875 C 4.15625 -26.039062 4.207031 -26.332031 4.3125 -26.59375 C 4.414062 -26.863281 4.53125 -27.140625 4.65625 -27.421875 C 5.300781 -28.972656 6.273438 -30.113281 7.578125 -30.84375 C 8.890625 -31.582031 10.332031 -32.070312 11.90625 -32.3125 C 13.476562 -32.5625 14.976562 -32.6875 16.40625 -32.6875 C 19.75 -32.6875 22.503906 -31.785156 24.671875 -29.984375 C 26.835938 -28.191406 27.921875 -25.539062 27.921875 -22.03125 L 27.921875 -12.796875 C 27.878906 -11.648438 27.867188 -10.472656 27.890625 -9.265625 C 27.910156 -8.066406 27.957031 -6.875 28.03125 -5.6875 C 28.113281 -5 28.273438 -4.335938 28.515625 -3.703125 C 28.765625 -3.066406 29.320312 -2.75 30.1875 -2.75 C 30.75 -2.75 31.222656 -2.867188 31.609375 -3.109375 C 32.003906 -3.359375 32.363281 -3.484375 32.6875 -3.484375 C 32.851562 -3.484375 32.957031 -3.398438 33 -3.234375 C 33.039062 -3.078125 33.0625 -2.957031 33.0625 -2.875 Z M 33.0625 -2.875 "/></g></g></g><g fill="#ffffff" fill-opacity="1"><g transform="translate(173.090042, 171.20282)"><g><path d="M 19.53125 -0.796875 C 19.53125 -0.140625 19.203125 0.1875 18.546875 0.1875 C 17.285156 0.1875 16.039062 0.132812 14.8125 0.03125 C 13.59375 -0.0703125 12.347656 -0.125 11.078125 -0.125 C 9.773438 -0.125 8.457031 -0.0703125 7.125 0.03125 C 5.800781 0.132812 4.488281 0.1875 3.1875 0.1875 C 2.894531 0.1875 2.6875 0.078125 2.5625 -0.140625 C 2.445312 -0.367188 2.390625 -0.609375 2.390625 -0.859375 C 2.390625 -1.304688 2.601562 -1.585938 3.03125 -1.703125 C 3.457031 -1.828125 3.945312 -1.867188 4.5 -1.828125 C 5.050781 -1.796875 5.46875 -1.78125 5.75 -1.78125 C 6.644531 -1.78125 7.09375 -2.269531 7.09375 -3.25 L 7.09375 -8.203125 C 7.09375 -13.585938 7.09375 -18.960938 7.09375 -24.328125 C 7.09375 -29.703125 7.09375 -35.082031 7.09375 -40.46875 C 7.09375 -40.914062 7.050781 -41.472656 6.96875 -42.140625 C 6.894531 -42.816406 6.507812 -43.15625 5.8125 -43.15625 C 5.320312 -43.15625 4.84375 -43.082031 4.375 -42.9375 C 3.90625 -42.800781 3.425781 -42.734375 2.9375 -42.734375 C 2.320312 -42.734375 2.015625 -43.054688 2.015625 -43.703125 C 2.015625 -44.160156 2.28125 -44.488281 2.8125 -44.6875 C 3.34375 -44.851562 3.90625 -44.972656 4.5 -45.046875 C 5.09375 -45.128906 5.65625 -45.234375 6.1875 -45.359375 C 7.40625 -45.648438 8.613281 -45.945312 9.8125 -46.25 C 11.019531 -46.550781 12.21875 -46.847656 13.40625 -47.140625 C 13.53125 -47.179688 13.648438 -47.210938 13.765625 -47.234375 C 13.890625 -47.253906 14.015625 -47.265625 14.140625 -47.265625 C 14.390625 -47.265625 14.625 -47.210938 14.84375 -47.109375 C 15.070312 -47.003906 15.1875 -46.789062 15.1875 -46.46875 C 15.1875 -39.28125 15.164062 -32.070312 15.125 -24.84375 C 15.082031 -17.625 15.0625 -10.425781 15.0625 -3.25 C 15.0625 -2.550781 15.265625 -2.097656 15.671875 -1.890625 C 16.078125 -1.691406 16.566406 -1.625 17.140625 -1.6875 C 17.710938 -1.75 18.222656 -1.78125 18.671875 -1.78125 C 19.242188 -1.78125 19.53125 -1.453125 19.53125 -0.796875 Z M 19.53125 -0.796875 "/></g></g></g><g fill="#ffffff" fill-opacity="1"><g transform="translate(194.267073, 171.20282)"><g/></g></g><g fill="#ffffff" fill-opacity="1"><g transform="translate(209.568394, 171.20282)"><g><path d="M 34.40625 -11.265625 C 34.40625 -8.898438 33.875 -6.929688 32.8125 -5.359375 C 31.75 -3.785156 30.347656 -2.550781 28.609375 -1.65625 C 26.878906 -0.757812 24.992188 -0.128906 22.953125 0.234375 C 20.910156 0.609375 18.910156 0.796875 16.953125 0.796875 C 15.441406 0.796875 13.992188 0.582031 12.609375 0.15625 C 11.222656 -0.269531 9.816406 -0.75 8.390625 -1.28125 C 7.691406 -1.53125 7.003906 -1.6875 6.328125 -1.75 C 5.660156 -1.8125 4.957031 -1.84375 4.21875 -1.84375 C 4.101562 -2.820312 3.984375 -3.789062 3.859375 -4.75 C 3.734375 -5.707031 3.585938 -6.675781 3.421875 -7.65625 C 3.347656 -8.34375 3.25 -9.015625 3.125 -9.671875 C 3 -10.328125 2.9375 -10.976562 2.9375 -11.625 C 2.9375 -12.195312 3.046875 -12.664062 3.265625 -13.03125 C 3.492188 -13.40625 3.914062 -13.59375 4.53125 -13.59375 C 5.101562 -13.59375 5.539062 -13.476562 5.84375 -13.25 C 6.15625 -13.03125 6.390625 -12.65625 6.546875 -12.125 C 6.835938 -11.382812 7.070312 -10.625 7.25 -9.84375 C 7.4375 -9.070312 7.671875 -8.300781 7.953125 -7.53125 C 8.648438 -5.613281 9.785156 -4.082031 11.359375 -2.9375 C 12.929688 -1.789062 14.773438 -1.21875 16.890625 -1.21875 C 19.753906 -1.21875 21.945312 -2.046875 23.46875 -3.703125 C 25 -5.359375 25.765625 -7.59375 25.765625 -10.40625 C 25.765625 -12.039062 25.414062 -13.394531 24.71875 -14.46875 C 24.03125 -15.550781 23.132812 -16.476562 22.03125 -17.25 C 20.9375 -18.03125 19.753906 -18.769531 18.484375 -19.46875 C 17.304688 -20.125 16.101562 -20.734375 14.875 -21.296875 C 13.65625 -21.867188 12.453125 -22.460938 11.265625 -23.078125 C 9.960938 -23.773438 8.6875 -24.644531 7.4375 -25.6875 C 6.195312 -26.726562 5.175781 -27.929688 4.375 -29.296875 C 3.582031 -30.660156 3.1875 -32.140625 3.1875 -33.734375 C 3.1875 -36.421875 3.890625 -38.640625 5.296875 -40.390625 C 6.703125 -42.148438 8.515625 -43.457031 10.734375 -44.3125 C 12.960938 -45.175781 15.28125 -45.609375 17.6875 -45.609375 C 19.238281 -45.609375 20.738281 -45.394531 22.1875 -44.96875 C 23.632812 -44.539062 25.054688 -44.039062 26.453125 -43.46875 C 26.898438 -43.300781 27.316406 -43.175781 27.703125 -43.09375 C 28.085938 -43.007812 28.503906 -42.96875 28.953125 -42.96875 C 29.285156 -42.96875 29.59375 -42.976562 29.875 -43 C 30.15625 -43.019531 30.441406 -43.050781 30.734375 -43.09375 C 30.859375 -41.789062 31 -40.484375 31.15625 -39.171875 C 31.320312 -37.867188 31.488281 -36.566406 31.65625 -35.265625 C 31.695312 -35.054688 31.722656 -34.835938 31.734375 -34.609375 C 31.753906 -34.390625 31.765625 -34.175781 31.765625 -33.96875 C 31.765625 -33.40625 31.640625 -32.890625 31.390625 -32.421875 C 31.148438 -31.953125 30.6875 -31.71875 30 -31.71875 C 29.46875 -31.71875 29.078125 -31.835938 28.828125 -32.078125 C 28.585938 -32.328125 28.363281 -32.675781 28.15625 -33.125 C 27.664062 -34.382812 27.195312 -35.625 26.75 -36.84375 C 26.300781 -38.070312 25.648438 -39.21875 24.796875 -40.28125 C 23.898438 -41.425781 22.773438 -42.273438 21.421875 -42.828125 C 20.078125 -43.378906 18.691406 -43.65625 17.265625 -43.65625 C 15.878906 -43.65625 14.710938 -43.273438 13.765625 -42.515625 C 12.828125 -41.765625 12.132812 -40.796875 11.6875 -39.609375 C 11.238281 -38.421875 11.015625 -37.195312 11.015625 -35.9375 C 11.015625 -33.976562 11.535156 -32.457031 12.578125 -31.375 C 13.617188 -30.289062 14.914062 -29.300781 16.46875 -28.40625 C 17.320312 -27.957031 18.1875 -27.519531 19.0625 -27.09375 C 19.945312 -26.664062 20.816406 -26.242188 21.671875 -25.828125 C 23.710938 -24.890625 25.703125 -23.757812 27.640625 -22.4375 C 29.578125 -21.113281 31.1875 -19.539062 32.46875 -17.71875 C 33.757812 -15.90625 34.40625 -13.753906 34.40625 -11.265625 Z M 34.40625 -11.265625 "/></g></g></g><g fill="#ffffff" fill-opacity="1"><g transform="translate(245.924344, 171.20282)"><g><path d="M 22.71875 -2.9375 C 22.71875 -2.363281 22.421875 -1.863281 21.828125 -1.4375 C 21.234375 -1.007812 20.492188 -0.660156 19.609375 -0.390625 C 18.734375 -0.128906 17.847656 0.0625 16.953125 0.1875 C 16.054688 0.3125 15.300781 0.375 14.6875 0.375 C 11.625 0.375 9.5 -0.242188 8.3125 -1.484375 C 7.132812 -2.734375 6.546875 -4.8125 6.546875 -7.71875 C 6.546875 -11.226562 6.566406 -14.738281 6.609375 -18.25 C 6.648438 -21.757812 6.671875 -25.265625 6.671875 -28.765625 L 3.859375 -28.765625 C 3.453125 -28.765625 3.101562 -28.632812 2.8125 -28.375 C 2.53125 -28.113281 2.265625 -27.984375 2.015625 -27.984375 C 1.609375 -27.984375 1.40625 -28.1875 1.40625 -28.59375 C 1.40625 -28.75 1.484375 -29.050781 1.640625 -29.5 C 1.804688 -29.957031 1.929688 -30.242188 2.015625 -30.359375 C 2.140625 -30.609375 2.265625 -30.753906 2.390625 -30.796875 C 2.515625 -30.835938 2.695312 -30.859375 2.9375 -30.859375 L 6.734375 -30.859375 L 6.734375 -37.40625 C 7.753906 -37.976562 8.875 -38.8125 10.09375 -39.90625 C 11.320312 -41.007812 12.265625 -42.03125 12.921875 -42.96875 C 13.035156 -43.175781 13.195312 -43.390625 13.40625 -43.609375 C 13.613281 -43.835938 13.859375 -43.953125 14.140625 -43.953125 C 14.796875 -43.953125 15.101562 -43.664062 15.0625 -43.09375 L 14.875 -30.859375 L 21.1875 -30.859375 C 21.507812 -30.859375 21.800781 -30.785156 22.0625 -30.640625 C 22.332031 -30.492188 22.46875 -30.238281 22.46875 -29.875 C 22.46875 -29.101562 22.039062 -28.71875 21.1875 -28.71875 L 14.875 -28.71875 L 14.75 -5.078125 C 14.75 -4.429688 14.878906 -3.8125 15.140625 -3.21875 C 15.410156 -2.625 15.9375 -2.328125 16.71875 -2.328125 C 17.40625 -2.328125 18.101562 -2.382812 18.8125 -2.5 C 19.53125 -2.625 20.195312 -2.832031 20.8125 -3.125 C 21.019531 -3.207031 21.210938 -3.296875 21.390625 -3.390625 C 21.578125 -3.492188 21.773438 -3.546875 21.984375 -3.546875 C 22.472656 -3.546875 22.71875 -3.34375 22.71875 -2.9375 Z M 22.71875 -2.9375 "/></g></g></g><g fill="#ffffff" fill-opacity="1"><g transform="translate(268.692722, 171.20282)"><g><path d="M 36.796875 -31.890625 C 36.796875 -31.316406 36.507812 -31.019531 35.9375 -31 C 35.363281 -30.988281 34.875 -30.984375 34.46875 -30.984375 C 33.9375 -30.984375 33.503906 -30.804688 33.171875 -30.453125 C 32.847656 -30.109375 32.585938 -29.710938 32.390625 -29.265625 C 30.796875 -25.835938 29.179688 -22.425781 27.546875 -19.03125 C 25.910156 -15.644531 24.316406 -12.238281 22.765625 -8.8125 C 21.753906 -6.445312 20.6875 -4.070312 19.5625 -1.6875 C 18.4375 0.695312 17.28125 3.054688 16.09375 5.390625 C 15.769531 6.035156 15.429688 6.695312 15.078125 7.375 C 14.734375 8.050781 14.359375 8.734375 13.953125 9.421875 C 13.222656 10.566406 12.328125 11.394531 11.265625 11.90625 C 10.203125 12.414062 9 12.671875 7.65625 12.671875 C 6.269531 12.671875 5.023438 12.25 3.921875 11.40625 C 2.816406 10.570312 2.265625 9.398438 2.265625 7.890625 C 2.265625 6.953125 2.617188 6.1875 3.328125 5.59375 C 4.046875 5.007812 4.851562 4.71875 5.75 4.71875 C 6.195312 4.71875 6.585938 4.796875 6.921875 4.953125 C 6.878906 6.097656 7.0625 6.90625 7.46875 7.375 C 7.875 7.84375 8.648438 8.078125 9.796875 8.078125 C 10.160156 8.078125 10.523438 7.984375 10.890625 7.796875 C 11.265625 7.617188 11.59375 7.425781 11.875 7.21875 C 12.238281 6.9375 12.675781 6.4375 13.1875 5.71875 C 13.695312 5.007812 14.164062 4.253906 14.59375 3.453125 C 15.03125 2.660156 15.285156 2.039062 15.359375 1.59375 C 15.398438 1.382812 15.441406 1.15625 15.484375 0.90625 C 15.523438 0.664062 15.546875 0.445312 15.546875 0.25 C 15.546875 -0.9375 15.257812 -2.457031 14.6875 -4.3125 C 14.113281 -6.164062 13.410156 -8.132812 12.578125 -10.21875 C 11.742188 -12.300781 10.914062 -14.269531 10.09375 -16.125 C 9.28125 -17.988281 8.628906 -19.53125 8.140625 -20.75 C 7.609375 -22.132812 7.046875 -23.53125 6.453125 -24.9375 C 5.867188 -26.351562 5.164062 -27.671875 4.34375 -28.890625 C 3.894531 -29.585938 3.375 -29.976562 2.78125 -30.0625 C 2.1875 -30.144531 1.523438 -30.1875 0.796875 -30.1875 C 0.628906 -30.1875 0.453125 -30.242188 0.265625 -30.359375 C 0.0859375 -30.484375 0 -30.648438 0 -30.859375 C 0 -31.429688 0.265625 -31.773438 0.796875 -31.890625 C 1.941406 -32.097656 3.132812 -32.25 4.375 -32.34375 C 5.625 -32.445312 6.816406 -32.582031 7.953125 -32.75 C 8.398438 -32.832031 8.835938 -32.894531 9.265625 -32.9375 C 9.703125 -32.976562 10.125 -33 10.53125 -33 C 11.101562 -33 11.488281 -32.882812 11.6875 -32.65625 C 11.894531 -32.4375 12.082031 -32.101562 12.25 -31.65625 C 12.8125 -30.425781 13.328125 -29.175781 13.796875 -27.90625 C 14.273438 -26.644531 14.738281 -25.363281 15.1875 -24.0625 C 16.039062 -21.65625 16.9375 -19.222656 17.875 -16.765625 C 18.8125 -14.316406 19.671875 -11.847656 20.453125 -9.359375 C 20.773438 -10.097656 21.25 -11.210938 21.875 -12.703125 C 22.507812 -14.191406 23.203125 -15.84375 23.953125 -17.65625 C 24.710938 -19.476562 25.441406 -21.285156 26.140625 -23.078125 C 26.835938 -24.867188 27.410156 -26.46875 27.859375 -27.875 C 28.304688 -29.289062 28.53125 -30.285156 28.53125 -30.859375 C 28.53125 -31.054688 28.40625 -31.164062 28.15625 -31.1875 C 27.914062 -31.207031 27.734375 -31.21875 27.609375 -31.21875 C 27.203125 -31.21875 26.785156 -31.207031 26.359375 -31.1875 C 25.929688 -31.164062 25.488281 -31.15625 25.03125 -31.15625 C 24.707031 -31.15625 24.421875 -31.195312 24.171875 -31.28125 C 23.929688 -31.363281 23.8125 -31.609375 23.8125 -32.015625 C 23.8125 -32.503906 23.941406 -32.769531 24.203125 -32.8125 C 24.472656 -32.851562 24.769531 -32.875 25.09375 -32.875 C 26.894531 -32.875 28.703125 -32.882812 30.515625 -32.90625 C 32.328125 -32.925781 34.113281 -32.9375 35.875 -32.9375 C 36.488281 -32.9375 36.796875 -32.585938 36.796875 -31.890625 Z M 36.796875 -31.890625 "/></g></g></g><g fill="#ffffff" fill-opacity="1"><g transform="translate(305.048671, 171.20282)"><g><path d="M 19.53125 -0.796875 C 19.53125 -0.140625 19.203125 0.1875 18.546875 0.1875 C 17.285156 0.1875 16.039062 0.132812 14.8125 0.03125 C 13.59375 -0.0703125 12.347656 -0.125 11.078125 -0.125 C 9.773438 -0.125 8.457031 -0.0703125 7.125 0.03125 C 5.800781 0.132812 4.488281 0.1875 3.1875 0.1875 C 2.894531 0.1875 2.6875 0.078125 2.5625 -0.140625 C 2.445312 -0.367188 2.390625 -0.609375 2.390625 -0.859375 C 2.390625 -1.304688 2.601562 -1.585938 3.03125 -1.703125 C 3.457031 -1.828125 3.945312 -1.867188 4.5 -1.828125 C 5.050781 -1.796875 5.46875 -1.78125 5.75 -1.78125 C 6.644531 -1.78125 7.09375 -2.269531 7.09375 -3.25 L 7.09375 -8.203125 C 7.09375 -13.585938 7.09375 -18.960938 7.09375 -24.328125 C 7.09375 -29.703125 7.09375 -35.082031 7.09375 -40.46875 C 7.09375 -40.914062 7.050781 -41.472656 6.96875 -42.140625 C 6.894531 -42.816406 6.507812 -43.15625 5.8125 -43.15625 C 5.320312 -43.15625 4.84375 -43.082031 4.375 -42.9375 C 3.90625 -42.800781 3.425781 -42.734375 2.9375 -42.734375 C 2.320312 -42.734375 2.015625 -43.054688 2.015625 -43.703125 C 2.015625 -44.160156 2.28125 -44.488281 2.8125 -44.6875 C 3.34375 -44.851562 3.90625 -44.972656 4.5 -45.046875 C 5.09375 -45.128906 5.65625 -45.234375 6.1875 -45.359375 C 7.40625 -45.648438 8.613281 -45.945312 9.8125 -46.25 C 11.019531 -46.550781 12.21875 -46.847656 13.40625 -47.140625 C 13.53125 -47.179688 13.648438 -47.210938 13.765625 -47.234375 C 13.890625 -47.253906 14.015625 -47.265625 14.140625 -47.265625 C 14.390625 -47.265625 14.625 -47.210938 14.84375 -47.109375 C 15.070312 -47.003906 15.1875 -46.789062 15.1875 -46.46875 C 15.1875 -39.28125 15.164062 -32.070312 15.125 -24.84375 C 15.082031 -17.625 15.0625 -10.425781 15.0625 -3.25 C 15.0625 -2.550781 15.265625 -2.097656 15.671875 -1.890625 C 16.078125 -1.691406 16.566406 -1.625 17.140625 -1.6875 C 17.710938 -1.75 18.222656 -1.78125 18.671875 -1.78125 C 19.242188 -1.78125 19.53125 -1.453125 19.53125 -0.796875 Z M 19.53125 -0.796875 "/></g></g></g><g fill="#ffffff" fill-opacity="1"><g transform="translate(326.225702, 171.20282)"><g><path d="M 23.140625 -21.484375 C 23.140625 -22.304688 23.097656 -23.285156 23.015625 -24.421875 C 22.929688 -25.566406 22.738281 -26.679688 22.4375 -27.765625 C 22.132812 -28.847656 21.65625 -29.753906 21 -30.484375 C 20.34375 -31.222656 19.441406 -31.59375 18.296875 -31.59375 C 17.203125 -31.59375 16.234375 -31.234375 15.390625 -30.515625 C 14.554688 -29.804688 13.851562 -28.910156 13.28125 -27.828125 C 12.707031 -26.742188 12.257812 -25.617188 11.9375 -24.453125 C 11.613281 -23.296875 11.367188 -22.265625 11.203125 -21.359375 C 11.898438 -21.359375 12.582031 -21.347656 13.25 -21.328125 C 13.925781 -21.304688 14.59375 -21.296875 15.25 -21.296875 C 17.894531 -21.296875 20.523438 -21.359375 23.140625 -21.484375 Z M 31.953125 -7.953125 C 31.953125 -7.835938 31.921875 -7.664062 31.859375 -7.4375 C 31.796875 -7.207031 31.726562 -7.035156 31.65625 -6.921875 C 31.363281 -6.265625 30.828125 -5.515625 30.046875 -4.671875 C 29.273438 -3.835938 28.585938 -3.195312 27.984375 -2.75 C 25.242188 -0.664062 22.078125 0.375 18.484375 0.375 C 15.265625 0.375 12.46875 -0.304688 10.09375 -1.671875 C 7.726562 -3.046875 5.910156 -4.957031 4.640625 -7.40625 C 3.378906 -9.851562 2.75 -12.671875 2.75 -15.859375 C 2.75 -19.035156 3.367188 -21.921875 4.609375 -24.515625 C 5.859375 -27.109375 7.65625 -29.171875 10 -30.703125 C 12.351562 -32.234375 15.179688 -33 18.484375 -33 C 22.285156 -33 25.328125 -31.957031 27.609375 -29.875 C 29.890625 -27.789062 31.03125 -24.8125 31.03125 -20.9375 C 31.03125 -19.875 30.539062 -19.34375 29.5625 -19.34375 C 27.769531 -19.34375 25.972656 -19.363281 24.171875 -19.40625 C 22.378906 -19.445312 20.585938 -19.46875 18.796875 -19.46875 C 17.484375 -19.46875 16.175781 -19.46875 14.875 -19.46875 C 13.570312 -19.46875 12.265625 -19.445312 10.953125 -19.40625 C 10.835938 -18.175781 10.78125 -16.929688 10.78125 -15.671875 C 10.78125 -14.523438 10.929688 -13.175781 11.234375 -11.625 C 11.535156 -10.082031 12.003906 -8.570312 12.640625 -7.09375 C 13.273438 -5.625 14.101562 -4.410156 15.125 -3.453125 C 16.144531 -2.492188 17.390625 -2.015625 18.859375 -2.015625 C 20.691406 -2.015625 22.226562 -2.28125 23.46875 -2.8125 C 24.71875 -3.34375 25.832031 -4.097656 26.8125 -5.078125 C 27.789062 -6.054688 28.789062 -7.222656 29.8125 -8.578125 C 29.9375 -8.734375 30.066406 -8.863281 30.203125 -8.96875 C 30.347656 -9.070312 30.523438 -9.125 30.734375 -9.125 C 31.015625 -9.125 31.285156 -9.007812 31.546875 -8.78125 C 31.816406 -8.5625 31.953125 -8.285156 31.953125 -7.953125 Z M 31.953125 -7.953125 "/></g></g></g><g fill="#ffffff" fill-opacity="1"><g transform="translate(32.499382, 256.177368)"><g/></g></g><g fill="#ffffff" fill-opacity="1"><g transform="translate(47.797109, 256.177368)"><g><path d="M 38.75 -22.890625 C 38.75 -25.222656 38.492188 -27.550781 37.984375 -29.875 C 37.472656 -32.195312 36.644531 -34.316406 35.5 -36.234375 C 34.363281 -38.160156 32.851562 -39.703125 30.96875 -40.859375 C 29.09375 -42.023438 26.789062 -42.609375 24.0625 -42.609375 C 21.28125 -42.609375 18.546875 -42.546875 15.859375 -42.421875 L 15.859375 -4.953125 C 15.859375 -3.890625 16.019531 -3.132812 16.34375 -2.6875 C 16.664062 -2.238281 17.398438 -2.015625 18.546875 -2.015625 C 19.929688 -2.015625 21.390625 -2.078125 22.921875 -2.203125 C 24.453125 -2.328125 25.941406 -2.601562 27.390625 -3.03125 C 28.835938 -3.457031 30.113281 -4.097656 31.21875 -4.953125 C 33.875 -7.117188 35.789062 -9.8125 36.96875 -13.03125 C 38.15625 -16.257812 38.75 -19.546875 38.75 -22.890625 Z M 47.625 -23.75 C 47.625 -21.132812 47.234375 -18.5625 46.453125 -16.03125 C 45.679688 -13.507812 44.550781 -11.175781 43.0625 -9.03125 C 41.570312 -6.882812 39.726562 -5.078125 37.53125 -3.609375 C 36.101562 -2.671875 34.425781 -1.90625 32.5 -1.3125 C 30.582031 -0.71875 28.632812 -0.296875 26.65625 -0.046875 C 24.675781 0.191406 22.832031 0.3125 21.125 0.3125 C 19.695312 0.3125 18.273438 0.257812 16.859375 0.15625 C 15.453125 0.0507812 14.035156 0 12.609375 0 C 11.585938 0 10.554688 0.0078125 9.515625 0.03125 C 8.472656 0.0507812 7.421875 0.101562 6.359375 0.1875 C 5.953125 0.226562 5.566406 0.257812 5.203125 0.28125 C 4.835938 0.300781 4.472656 0.3125 4.109375 0.3125 C 3.367188 0.3125 3 -0.015625 3 -0.671875 C 3 -1.078125 3.179688 -1.34375 3.546875 -1.46875 C 3.921875 -1.59375 4.332031 -1.6875 4.78125 -1.75 C 5.226562 -1.8125 5.570312 -1.878906 5.8125 -1.953125 C 6.507812 -2.285156 6.957031 -2.796875 7.15625 -3.484375 C 7.363281 -4.179688 7.46875 -4.859375 7.46875 -5.515625 C 7.46875 -9.222656 7.46875 -12.910156 7.46875 -16.578125 C 7.46875 -20.253906 7.46875 -23.929688 7.46875 -27.609375 C 7.46875 -29.734375 7.476562 -31.84375 7.5 -33.9375 C 7.519531 -36.039062 7.46875 -38.132812 7.34375 -40.21875 C 7.34375 -40.300781 7.332031 -40.472656 7.3125 -40.734375 C 7.289062 -41.003906 7.28125 -41.160156 7.28125 -41.203125 C 7.15625 -41.691406 6.828125 -42.015625 6.296875 -42.171875 C 5.773438 -42.335938 5.207031 -42.410156 4.59375 -42.390625 C 3.976562 -42.367188 3.46875 -42.359375 3.0625 -42.359375 C 2.738281 -42.359375 2.429688 -42.429688 2.140625 -42.578125 C 1.859375 -42.722656 1.71875 -43 1.71875 -43.40625 C 1.71875 -44.175781 2.101562 -44.5625 2.875 -44.5625 C 3.894531 -44.5625 4.90625 -44.53125 5.90625 -44.46875 C 6.90625 -44.414062 7.914062 -44.390625 8.9375 -44.390625 C 11.832031 -44.390625 14.738281 -44.5 17.65625 -44.71875 C 20.570312 -44.945312 23.484375 -45.0625 26.390625 -45.0625 C 30.796875 -45.0625 34.585938 -44.203125 37.765625 -42.484375 C 40.953125 -40.773438 43.390625 -38.328125 45.078125 -35.140625 C 46.773438 -31.953125 47.625 -28.15625 47.625 -23.75 Z M 47.625 -23.75 "/></g></g></g><g fill="#ffffff" fill-opacity="1"><g transform="translate(98.046657, 256.177368)"><g><path d="M 19.21875 -0.734375 C 19.21875 -0.078125 18.894531 0.25 18.25 0.25 C 17.0625 0.25 15.851562 0.195312 14.625 0.09375 C 13.40625 -0.0078125 12.179688 -0.0625 10.953125 -0.0625 C 9.734375 -0.0625 8.5 -0.0078125 7.25 0.09375 C 6.007812 0.195312 4.773438 0.25 3.546875 0.25 C 3.265625 0.25 3.0625 0.140625 2.9375 -0.078125 C 2.8125 -0.304688 2.75 -0.523438 2.75 -0.734375 C 2.75 -1.390625 3.054688 -1.71875 3.671875 -1.71875 C 4.078125 -1.71875 4.460938 -1.695312 4.828125 -1.65625 C 5.203125 -1.613281 5.570312 -1.59375 5.9375 -1.59375 C 6.425781 -1.59375 6.738281 -1.753906 6.875 -2.078125 C 7.019531 -2.410156 7.09375 -2.78125 7.09375 -3.1875 L 7.09375 -27.484375 C 7.09375 -27.890625 7.050781 -28.347656 6.96875 -28.859375 C 6.894531 -29.367188 6.570312 -29.625 6 -29.625 C 5.46875 -29.625 4.914062 -29.582031 4.34375 -29.5 C 3.769531 -29.425781 3.195312 -29.390625 2.625 -29.390625 C 2.382812 -29.390625 2.148438 -29.445312 1.921875 -29.5625 C 1.703125 -29.6875 1.59375 -29.894531 1.59375 -30.1875 C 1.59375 -30.71875 1.859375 -31.0625 2.390625 -31.21875 C 2.835938 -31.300781 3.316406 -31.375 3.828125 -31.4375 C 4.335938 -31.5 4.816406 -31.550781 5.265625 -31.59375 C 6.691406 -31.789062 8.085938 -32.039062 9.453125 -32.34375 C 10.828125 -32.65625 12.207031 -32.972656 13.59375 -33.296875 C 13.71875 -33.296875 13.835938 -33.304688 13.953125 -33.328125 C 14.078125 -33.347656 14.179688 -33.359375 14.265625 -33.359375 C 14.878906 -33.359375 15.1875 -33.113281 15.1875 -32.625 C 15.1875 -27.726562 15.164062 -22.820312 15.125 -17.90625 C 15.082031 -12.988281 15.0625 -8.082031 15.0625 -3.1875 C 15.0625 -2.445312 15.222656 -1.984375 15.546875 -1.796875 C 15.878906 -1.617188 16.296875 -1.550781 16.796875 -1.59375 C 17.304688 -1.632812 17.828125 -1.65625 18.359375 -1.65625 C 18.929688 -1.65625 19.21875 -1.347656 19.21875 -0.734375 Z M 15.359375 -42.796875 C 15.359375 -41.523438 14.898438 -40.421875 13.984375 -39.484375 C 13.066406 -38.546875 11.957031 -38.078125 10.65625 -38.078125 C 9.382812 -38.078125 8.28125 -38.546875 7.34375 -39.484375 C 6.40625 -40.421875 5.9375 -41.523438 5.9375 -42.796875 C 5.9375 -44.097656 6.40625 -45.207031 7.34375 -46.125 C 8.28125 -47.039062 9.382812 -47.5 10.65625 -47.5 C 11.957031 -47.5 13.066406 -47.039062 13.984375 -46.125 C 14.898438 -45.207031 15.359375 -44.097656 15.359375 -42.796875 Z M 15.359375 -42.796875 "/></g></g></g><g fill="#ffffff" fill-opacity="1"><g transform="translate(119.101285, 256.177368)"><g><path d="M 20.453125 -6.484375 C 20.328125 -8.398438 20.242188 -10.328125 20.203125 -12.265625 C 20.160156 -14.210938 20.160156 -16.164062 20.203125 -18.125 C 18.523438 -17.832031 16.898438 -17.304688 15.328125 -16.546875 C 13.765625 -15.796875 12.472656 -14.785156 11.453125 -13.515625 C 10.429688 -12.253906 9.921875 -10.644531 9.921875 -8.6875 C 9.921875 -7.875 10.03125 -7 10.25 -6.0625 C 10.476562 -5.125 10.882812 -4.335938 11.46875 -3.703125 C 12.0625 -3.066406 12.867188 -2.75 13.890625 -2.75 C 14.628906 -2.75 15.40625 -2.960938 16.21875 -3.390625 C 17.039062 -3.828125 17.828125 -4.328125 18.578125 -4.890625 C 19.335938 -5.460938 19.960938 -5.992188 20.453125 -6.484375 Z M 33.0625 -2.875 C 33.0625 -2.707031 32.988281 -2.519531 32.84375 -2.3125 C 32.695312 -2.113281 32.566406 -1.957031 32.453125 -1.84375 C 31.179688 -0.363281 29.546875 0.375 27.546875 0.375 C 25.796875 0.375 24.390625 -0.0078125 23.328125 -0.78125 C 22.265625 -1.5625 21.445312 -2.769531 20.875 -4.40625 C 19.570312 -3.019531 18.175781 -1.914062 16.6875 -1.09375 C 15.195312 -0.28125 13.453125 0.125 11.453125 0.125 C 10.023438 0.125 8.582031 -0.191406 7.125 -0.828125 C 5.675781 -1.460938 4.472656 -2.367188 3.515625 -3.546875 C 2.554688 -4.734375 2.078125 -6.101562 2.078125 -7.65625 C 2.078125 -9.207031 2.472656 -10.582031 3.265625 -11.78125 C 4.066406 -12.988281 5.078125 -14.03125 6.296875 -14.90625 C 7.523438 -15.78125 8.773438 -16.503906 10.046875 -17.078125 C 11.671875 -17.773438 13.335938 -18.316406 15.046875 -18.703125 C 16.765625 -19.085938 18.484375 -19.484375 20.203125 -19.890625 L 20.203125 -20.140625 C 20.203125 -20.878906 20.191406 -21.867188 20.171875 -23.109375 C 20.148438 -24.359375 20.015625 -25.601562 19.765625 -26.84375 C 19.523438 -28.09375 19.117188 -29.15625 18.546875 -30.03125 C 17.972656 -30.90625 17.140625 -31.34375 16.046875 -31.34375 C 14.773438 -31.34375 13.640625 -30.972656 12.640625 -30.234375 C 11.640625 -29.503906 10.9375 -28.523438 10.53125 -27.296875 C 10.445312 -26.929688 10.382812 -26.578125 10.34375 -26.234375 C 10.300781 -25.890625 10.238281 -25.53125 10.15625 -25.15625 C 10.082031 -24.507812 9.707031 -24.070312 9.03125 -23.84375 C 8.351562 -23.625 7.726562 -23.515625 7.15625 -23.515625 C 6.46875 -23.515625 5.796875 -23.664062 5.140625 -23.96875 C 4.484375 -24.269531 4.15625 -24.851562 4.15625 -25.71875 C 4.15625 -26.039062 4.207031 -26.332031 4.3125 -26.59375 C 4.414062 -26.863281 4.53125 -27.140625 4.65625 -27.421875 C 5.300781 -28.972656 6.273438 -30.113281 7.578125 -30.84375 C 8.890625 -31.582031 10.332031 -32.070312 11.90625 -32.3125 C 13.476562 -32.5625 14.976562 -32.6875 16.40625 -32.6875 C 19.75 -32.6875 22.503906 -31.785156 24.671875 -29.984375 C 26.835938 -28.191406 27.921875 -25.539062 27.921875 -22.03125 L 27.921875 -12.796875 C 27.878906 -11.648438 27.867188 -10.472656 27.890625 -9.265625 C 27.910156 -8.066406 27.957031 -6.875 28.03125 -5.6875 C 28.113281 -5 28.273438 -4.335938 28.515625 -3.703125 C 28.765625 -3.066406 29.320312 -2.75 30.1875 -2.75 C 30.75 -2.75 31.222656 -2.867188 31.609375 -3.109375 C 32.003906 -3.359375 32.363281 -3.484375 32.6875 -3.484375 C 32.851562 -3.484375 32.957031 -3.398438 33 -3.234375 C 33.039062 -3.078125 33.0625 -2.957031 33.0625 -2.875 Z M 33.0625 -2.875 "/></g></g></g><g fill="#ffffff" fill-opacity="1"><g transform="translate(152.39697, 256.177368)"><g><path d="M 23.265625 2.515625 C 23.265625 0.921875 22.925781 -0.21875 22.25 -0.90625 C 21.582031 -1.601562 20.695312 -2.054688 19.59375 -2.265625 C 18.488281 -2.472656 17.320312 -2.632812 16.09375 -2.75 L 11.515625 -3.25 C 10.691406 -2.3125 10.132812 -1.367188 9.84375 -0.421875 C 9.5625 0.515625 9.421875 1.570312 9.421875 2.75 C 9.421875 5.195312 10.101562 6.867188 11.46875 7.765625 C 12.84375 8.671875 14.628906 9.125 16.828125 9.125 C 18.953125 9.125 20.554688 8.539062 21.640625 7.375 C 22.722656 6.207031 23.265625 4.585938 23.265625 2.515625 Z M 20.625 -22.953125 C 20.625 -23.691406 20.601562 -24.550781 20.5625 -25.53125 C 20.53125 -26.507812 20.390625 -27.46875 20.140625 -28.40625 C 19.898438 -29.34375 19.492188 -30.117188 18.921875 -30.734375 C 18.347656 -31.347656 17.550781 -31.65625 16.53125 -31.65625 C 15.300781 -31.65625 14.347656 -31.296875 13.671875 -30.578125 C 13.003906 -29.859375 12.523438 -28.957031 12.234375 -27.875 C 11.953125 -26.800781 11.78125 -25.691406 11.71875 -24.546875 C 11.65625 -23.398438 11.625 -22.398438 11.625 -21.546875 C 11.625 -20.648438 11.664062 -19.691406 11.75 -18.671875 C 11.832031 -17.648438 12.023438 -16.691406 12.328125 -15.796875 C 12.640625 -14.898438 13.117188 -14.164062 13.765625 -13.59375 C 14.421875 -13.019531 15.34375 -12.734375 16.53125 -12.734375 C 17.550781 -12.734375 18.335938 -13.03125 18.890625 -13.625 C 19.441406 -14.21875 19.835938 -14.972656 20.078125 -15.890625 C 20.328125 -16.804688 20.476562 -17.734375 20.53125 -18.671875 C 20.59375 -19.609375 20.625 -20.445312 20.625 -21.1875 Z M 32.75 -31.34375 C 32.75 -30.851562 32.429688 -30.484375 31.796875 -30.234375 C 31.171875 -29.992188 30.476562 -29.84375 29.71875 -29.78125 C 28.96875 -29.71875 28.40625 -29.6875 28.03125 -29.6875 C 27.582031 -29.6875 27.125 -29.695312 26.65625 -29.71875 C 26.1875 -29.738281 25.726562 -29.769531 25.28125 -29.8125 C 25.9375 -29.238281 26.5 -28.484375 26.96875 -27.546875 C 27.4375 -26.609375 27.800781 -25.617188 28.0625 -24.578125 C 28.332031 -23.535156 28.46875 -22.585938 28.46875 -21.734375 C 28.46875 -19.609375 27.882812 -17.769531 26.71875 -16.21875 C 25.5625 -14.664062 24.0625 -13.484375 22.21875 -12.671875 C 20.382812 -11.859375 18.488281 -11.453125 16.53125 -11.453125 C 16.125 -11.453125 15.691406 -11.453125 15.234375 -11.453125 C 14.785156 -11.453125 14.335938 -11.472656 13.890625 -11.515625 C 13.285156 -10.984375 12.785156 -10.441406 12.390625 -9.890625 C 12.003906 -9.335938 11.8125 -8.59375 11.8125 -7.65625 C 11.8125 -7.320312 11.972656 -6.984375 12.296875 -6.640625 C 12.628906 -6.296875 12.9375 -6.082031 13.21875 -6 C 13.832031 -5.789062 14.484375 -5.65625 15.171875 -5.59375 C 15.867188 -5.539062 16.523438 -5.472656 17.140625 -5.390625 C 18.734375 -5.304688 20.40625 -5.222656 22.15625 -5.140625 C 23.914062 -5.054688 25.5625 -4.71875 27.09375 -4.125 C 28.625 -3.539062 29.835938 -2.429688 30.734375 -0.796875 C 30.972656 -0.390625 31.125 0.015625 31.1875 0.421875 C 31.25 0.835938 31.28125 1.289062 31.28125 1.78125 C 31.28125 3.53125 30.78125 4.984375 29.78125 6.140625 C 28.78125 7.304688 27.515625 8.238281 25.984375 8.9375 C 24.453125 9.632812 22.835938 10.132812 21.140625 10.4375 C 19.453125 10.738281 17.914062 10.890625 16.53125 10.890625 C 15.507812 10.890625 14.203125 10.816406 12.609375 10.671875 C 11.015625 10.535156 9.429688 10.242188 7.859375 9.796875 C 6.296875 9.347656 4.984375 8.691406 3.921875 7.828125 C 2.859375 6.972656 2.328125 5.8125 2.328125 4.34375 C 2.328125 3.195312 2.59375 2.15625 3.125 1.21875 C 3.65625 0.28125 4.316406 -0.582031 5.109375 -1.375 C 5.910156 -2.175781 6.695312 -2.898438 7.46875 -3.546875 C 6.976562 -3.671875 6.34375 -3.925781 5.5625 -4.3125 C 4.789062 -4.695312 4.40625 -5.195312 4.40625 -5.8125 C 4.40625 -6.257812 4.609375 -6.8125 5.015625 -7.46875 C 5.421875 -8.125 5.929688 -8.796875 6.546875 -9.484375 C 7.160156 -10.179688 7.765625 -10.828125 8.359375 -11.421875 C 8.953125 -12.015625 9.410156 -12.472656 9.734375 -12.796875 C 7.859375 -13.816406 6.390625 -15.128906 5.328125 -16.734375 C 4.265625 -18.347656 3.734375 -20.238281 3.734375 -22.40625 C 3.734375 -24.644531 4.351562 -26.53125 5.59375 -28.0625 C 6.84375 -29.59375 8.4375 -30.753906 10.375 -31.546875 C 12.3125 -32.347656 14.28125 -32.75 16.28125 -32.75 C 16.851562 -32.75 17.445312 -32.707031 18.0625 -32.625 C 18.675781 -32.539062 19.265625 -32.441406 19.828125 -32.328125 C 20.484375 -32.160156 21.132812 -31.984375 21.78125 -31.796875 C 22.4375 -31.617188 23.113281 -31.53125 23.8125 -31.53125 C 25.363281 -31.53125 26.9375 -31.753906 28.53125 -32.203125 C 29.46875 -32.441406 30.179688 -32.890625 30.671875 -33.546875 C 31.160156 -34.203125 31.585938 -34.53125 31.953125 -34.53125 C 32.316406 -34.53125 32.550781 -34.3125 32.65625 -33.875 C 32.757812 -33.445312 32.800781 -32.976562 32.78125 -32.46875 C 32.757812 -31.96875 32.75 -31.59375 32.75 -31.34375 Z M 32.75 -31.34375 "/></g></g></g><g fill="#ffffff" fill-opacity="1"><g transform="translate(186.182294, 256.177368)"><g><path d="M 37.28125 -0.859375 C 37.28125 -0.203125 36.953125 0.125 36.296875 0.125 C 35.117188 0.125 33.925781 0.09375 32.71875 0.03125 C 31.519531 -0.03125 30.328125 -0.0625 29.140625 -0.0625 C 27.992188 -0.0625 26.828125 -0.03125 25.640625 0.03125 C 24.460938 0.09375 23.28125 0.125 22.09375 0.125 C 21.8125 0.125 21.609375 0.015625 21.484375 -0.203125 C 21.359375 -0.429688 21.296875 -0.671875 21.296875 -0.921875 C 21.296875 -1.535156 21.625 -1.84375 22.28125 -1.84375 C 22.644531 -1.84375 23.007812 -1.832031 23.375 -1.8125 C 23.75 -1.789062 24.117188 -1.78125 24.484375 -1.78125 C 25.097656 -1.78125 25.40625 -2.046875 25.40625 -2.578125 C 25.40625 -6.003906 25.414062 -9.429688 25.4375 -12.859375 C 25.457031 -16.285156 25.46875 -19.710938 25.46875 -23.140625 C 25.46875 -24.242188 25.375 -25.382812 25.1875 -26.5625 C 25.007812 -27.75 24.601562 -28.75 23.96875 -29.5625 C 23.332031 -30.382812 22.300781 -30.796875 20.875 -30.796875 C 19.976562 -30.796875 19.050781 -30.46875 18.09375 -29.8125 C 17.132812 -29.15625 16.273438 -28.378906 15.515625 -27.484375 C 14.765625 -26.585938 14.222656 -25.753906 13.890625 -24.984375 L 13.890625 -3.3125 C 13.890625 -2.9375 13.941406 -2.585938 14.046875 -2.265625 C 14.148438 -1.941406 14.425781 -1.78125 14.875 -1.78125 C 15.195312 -1.78125 15.53125 -1.789062 15.875 -1.8125 C 16.226562 -1.832031 16.566406 -1.84375 16.890625 -1.84375 C 17.097656 -1.84375 17.300781 -1.757812 17.5 -1.59375 C 17.707031 -1.425781 17.8125 -1.242188 17.8125 -1.046875 C 17.8125 -0.265625 17.484375 0.125 16.828125 0.125 C 15.691406 0.125 14.5625 0.0703125 13.4375 -0.03125 C 12.3125 -0.132812 11.160156 -0.1875 9.984375 -0.1875 C 8.753906 -0.1875 7.515625 -0.132812 6.265625 -0.03125 C 5.023438 0.0703125 3.773438 0.125 2.515625 0.125 C 2.222656 0.125 2.015625 0.015625 1.890625 -0.203125 C 1.773438 -0.429688 1.71875 -0.671875 1.71875 -0.921875 C 1.71875 -1.535156 2.039062 -1.84375 2.6875 -1.84375 C 3.0625 -1.84375 3.429688 -1.832031 3.796875 -1.8125 C 4.160156 -1.789062 4.546875 -1.78125 4.953125 -1.78125 C 5.523438 -1.78125 5.851562 -1.898438 5.9375 -2.140625 C 6.019531 -2.390625 6.0625 -2.78125 6.0625 -3.3125 L 6.0625 -12.1875 C 6.0625 -14.675781 6.0625 -17.164062 6.0625 -19.65625 C 6.0625 -22.144531 6.0625 -24.632812 6.0625 -27.125 C 6.0625 -27.570312 6 -28.070312 5.875 -28.625 C 5.75 -29.175781 5.382812 -29.453125 4.78125 -29.453125 C 4.363281 -29.453125 3.960938 -29.429688 3.578125 -29.390625 C 3.191406 -29.347656 2.796875 -29.328125 2.390625 -29.328125 C 2.140625 -29.328125 1.863281 -29.375 1.5625 -29.46875 C 1.257812 -29.570312 1.109375 -29.789062 1.109375 -30.125 C 1.109375 -30.363281 1.1875 -30.546875 1.34375 -30.671875 C 1.507812 -30.796875 1.691406 -30.878906 1.890625 -30.921875 C 2.304688 -31.035156 2.738281 -31.113281 3.1875 -31.15625 C 3.632812 -31.195312 4.0625 -31.257812 4.46875 -31.34375 C 5.53125 -31.550781 6.582031 -31.785156 7.625 -32.046875 C 8.664062 -32.316406 9.695312 -32.59375 10.71875 -32.875 C 10.875 -32.957031 11.035156 -33.03125 11.203125 -33.09375 C 11.367188 -33.15625 11.53125 -33.1875 11.6875 -33.1875 C 12.019531 -33.1875 12.316406 -32.878906 12.578125 -32.265625 C 12.847656 -31.648438 13.070312 -30.992188 13.25 -30.296875 C 13.4375 -29.609375 13.550781 -29.117188 13.59375 -28.828125 C 14.769531 -29.890625 16.195312 -30.835938 17.875 -31.671875 C 19.550781 -32.515625 21.203125 -32.9375 22.828125 -32.9375 C 25.566406 -32.9375 27.703125 -32.585938 29.234375 -31.890625 C 30.765625 -31.203125 31.851562 -30.050781 32.5 -28.4375 C 33.15625 -26.820312 33.484375 -24.671875 33.484375 -21.984375 C 33.484375 -18.796875 33.460938 -15.609375 33.421875 -12.421875 C 33.378906 -9.242188 33.359375 -6.0625 33.359375 -2.875 C 33.359375 -2.46875 33.488281 -2.171875 33.75 -1.984375 C 34.019531 -1.804688 34.359375 -1.71875 34.765625 -1.71875 C 35.054688 -1.71875 35.332031 -1.738281 35.59375 -1.78125 C 35.863281 -1.820312 36.140625 -1.84375 36.421875 -1.84375 C 36.992188 -1.84375 37.28125 -1.515625 37.28125 -0.859375 Z M 37.28125 -0.859375 "/></g></g></g><g fill="#ffffff" fill-opacity="1"><g transform="translate(224.864049, 256.177368)"><g><path d="M 26.875 -16.09375 C 26.875 -17.445312 26.78125 -18.988281 26.59375 -20.71875 C 26.414062 -22.457031 26.039062 -24.140625 25.46875 -25.765625 C 24.894531 -27.398438 24.066406 -28.757812 22.984375 -29.84375 C 21.898438 -30.925781 20.441406 -31.46875 18.609375 -31.46875 C 16.929688 -31.46875 15.582031 -30.9375 14.5625 -29.875 C 13.550781 -28.8125 12.769531 -27.484375 12.21875 -25.890625 C 11.664062 -24.304688 11.285156 -22.664062 11.078125 -20.96875 C 10.878906 -19.269531 10.78125 -17.8125 10.78125 -16.59375 C 10.78125 -15.238281 10.867188 -13.691406 11.046875 -11.953125 C 11.234375 -10.222656 11.613281 -8.539062 12.1875 -6.90625 C 12.757812 -5.28125 13.59375 -3.9375 14.6875 -2.875 C 15.789062 -1.8125 17.257812 -1.28125 19.09375 -1.28125 C 20.8125 -1.28125 22.191406 -1.800781 23.234375 -2.84375 C 24.273438 -3.882812 25.0625 -5.191406 25.59375 -6.765625 C 26.125 -8.335938 26.46875 -9.96875 26.625 -11.65625 C 26.789062 -13.351562 26.875 -14.832031 26.875 -16.09375 Z M 35.203125 -15.796875 C 35.203125 -12.648438 34.488281 -9.863281 33.0625 -7.4375 C 31.632812 -5.007812 29.6875 -3.097656 27.21875 -1.703125 C 24.75 -0.316406 21.941406 0.375 18.796875 0.375 C 15.648438 0.375 12.875 -0.359375 10.46875 -1.828125 C 8.0625 -3.304688 6.171875 -5.289062 4.796875 -7.78125 C 3.429688 -10.269531 2.75 -13.0625 2.75 -16.15625 C 2.75 -19.382812 3.421875 -22.273438 4.765625 -24.828125 C 6.117188 -27.378906 8.019531 -29.398438 10.46875 -30.890625 C 12.914062 -32.378906 15.769531 -33.125 19.03125 -33.125 C 22.625 -33.125 25.613281 -32.394531 28 -30.9375 C 30.394531 -29.488281 32.191406 -27.46875 33.390625 -24.875 C 34.597656 -22.289062 35.203125 -19.265625 35.203125 -15.796875 Z M 35.203125 -15.796875 "/></g></g></g><g fill="#ffffff" fill-opacity="1"><g transform="translate(262.811333, 256.177368)"><g><path d="M 25.828125 -9 C 25.828125 -7.082031 25.421875 -5.519531 24.609375 -4.3125 C 23.796875 -3.113281 22.710938 -2.1875 21.359375 -1.53125 C 20.015625 -0.875 18.554688 -0.421875 16.984375 -0.171875 C 15.410156 0.0664062 13.851562 0.1875 12.3125 0.1875 C 11.289062 0.1875 10.289062 0.0859375 9.3125 -0.109375 C 8.332031 -0.316406 7.347656 -0.546875 6.359375 -0.796875 C 5.953125 -0.878906 5.523438 -0.96875 5.078125 -1.0625 C 4.628906 -1.164062 4.179688 -1.21875 3.734375 -1.21875 C 3.566406 -1.789062 3.332031 -2.640625 3.03125 -3.765625 C 2.726562 -4.890625 2.441406 -5.988281 2.171875 -7.0625 C 1.910156 -8.144531 1.78125 -8.910156 1.78125 -9.359375 C 1.78125 -9.816406 1.921875 -10.101562 2.203125 -10.21875 C 2.484375 -10.34375 2.789062 -10.40625 3.125 -10.40625 C 3.613281 -10.40625 3.976562 -10.222656 4.21875 -9.859375 C 4.832031 -9.003906 5.320312 -8.101562 5.6875 -7.15625 C 6.0625 -6.21875 6.632812 -5.34375 7.40625 -4.53125 C 7.976562 -3.914062 8.804688 -3.289062 9.890625 -2.65625 C 10.972656 -2.03125 11.941406 -1.71875 12.796875 -1.71875 C 14.628906 -1.71875 16.003906 -2.144531 16.921875 -3 C 17.835938 -3.851562 18.296875 -5.21875 18.296875 -7.09375 C 18.296875 -8.363281 17.910156 -9.425781 17.140625 -10.28125 C 16.367188 -11.144531 15.378906 -11.921875 14.171875 -12.609375 C 12.960938 -13.304688 11.6875 -13.988281 10.34375 -14.65625 C 9 -15.332031 7.722656 -16.078125 6.515625 -16.890625 C 5.316406 -17.710938 4.328125 -18.703125 3.546875 -19.859375 C 2.773438 -21.023438 2.390625 -22.445312 2.390625 -24.125 C 2.390625 -26.207031 2.957031 -27.898438 4.09375 -29.203125 C 5.238281 -30.503906 6.695312 -31.460938 8.46875 -32.078125 C 10.25 -32.691406 12.035156 -33 13.828125 -33 C 14.648438 -33 15.445312 -32.9375 16.21875 -32.8125 C 17 -32.6875 17.773438 -32.460938 18.546875 -32.140625 C 18.910156 -32.015625 19.410156 -31.859375 20.046875 -31.671875 C 20.679688 -31.492188 21.179688 -31.40625 21.546875 -31.40625 C 22.078125 -31.40625 22.585938 -31.46875 23.078125 -31.59375 C 23.160156 -30.445312 23.289062 -29.300781 23.46875 -28.15625 C 23.65625 -27.019531 23.769531 -25.878906 23.8125 -24.734375 L 23.8125 -24.546875 C 23.851562 -24.140625 23.738281 -23.800781 23.46875 -23.53125 C 23.207031 -23.269531 22.894531 -23.140625 22.53125 -23.140625 C 22.125 -23.140625 21.828125 -23.21875 21.640625 -23.375 C 21.453125 -23.539062 21.28125 -23.789062 21.125 -24.125 C 20.59375 -25.300781 20.070312 -26.429688 19.5625 -27.515625 C 19.050781 -28.597656 18.375 -29.484375 17.53125 -30.171875 C 16.695312 -30.867188 15.503906 -31.21875 13.953125 -31.21875 C 12.328125 -31.21875 11.125 -30.582031 10.34375 -29.3125 C 9.570312 -28.050781 9.1875 -26.707031 9.1875 -25.28125 C 9.1875 -24.132812 9.613281 -23.15625 10.46875 -22.34375 C 11.320312 -21.53125 12.195312 -20.878906 13.09375 -20.390625 C 14.195312 -19.816406 15.472656 -19.179688 16.921875 -18.484375 C 18.367188 -17.796875 19.765625 -17 21.109375 -16.09375 C 22.460938 -15.195312 23.585938 -14.164062 24.484375 -13 C 25.378906 -11.84375 25.828125 -10.507812 25.828125 -9 Z M 25.828125 -9 "/></g></g></g><g fill="#ffffff" fill-opacity="1"><g transform="translate(290.108892, 256.177368)"><g><path d="M 19.21875 -0.734375 C 19.21875 -0.078125 18.894531 0.25 18.25 0.25 C 17.0625 0.25 15.851562 0.195312 14.625 0.09375 C 13.40625 -0.0078125 12.179688 -0.0625 10.953125 -0.0625 C 9.734375 -0.0625 8.5 -0.0078125 7.25 0.09375 C 6.007812 0.195312 4.773438 0.25 3.546875 0.25 C 3.265625 0.25 3.0625 0.140625 2.9375 -0.078125 C 2.8125 -0.304688 2.75 -0.523438 2.75 -0.734375 C 2.75 -1.390625 3.054688 -1.71875 3.671875 -1.71875 C 4.078125 -1.71875 4.460938 -1.695312 4.828125 -1.65625 C 5.203125 -1.613281 5.570312 -1.59375 5.9375 -1.59375 C 6.425781 -1.59375 6.738281 -1.753906 6.875 -2.078125 C 7.019531 -2.410156 7.09375 -2.78125 7.09375 -3.1875 L 7.09375 -27.484375 C 7.09375 -27.890625 7.050781 -28.347656 6.96875 -28.859375 C 6.894531 -29.367188 6.570312 -29.625 6 -29.625 C 5.46875 -29.625 4.914062 -29.582031 4.34375 -29.5 C 3.769531 -29.425781 3.195312 -29.390625 2.625 -29.390625 C 2.382812 -29.390625 2.148438 -29.445312 1.921875 -29.5625 C 1.703125 -29.6875 1.59375 -29.894531 1.59375 -30.1875 C 1.59375 -30.71875 1.859375 -31.0625 2.390625 -31.21875 C 2.835938 -31.300781 3.316406 -31.375 3.828125 -31.4375 C 4.335938 -31.5 4.816406 -31.550781 5.265625 -31.59375 C 6.691406 -31.789062 8.085938 -32.039062 9.453125 -32.34375 C 10.828125 -32.65625 12.207031 -32.972656 13.59375 -33.296875 C 13.71875 -33.296875 13.835938 -33.304688 13.953125 -33.328125 C 14.078125 -33.347656 14.179688 -33.359375 14.265625 -33.359375 C 14.878906 -33.359375 15.1875 -33.113281 15.1875 -32.625 C 15.1875 -27.726562 15.164062 -22.820312 15.125 -17.90625 C 15.082031 -12.988281 15.0625 -8.082031 15.0625 -3.1875 C 15.0625 -2.445312 15.222656 -1.984375 15.546875 -1.796875 C 15.878906 -1.617188 16.296875 -1.550781 16.796875 -1.59375 C 17.304688 -1.632812 17.828125 -1.65625 18.359375 -1.65625 C 18.929688 -1.65625 19.21875 -1.347656 19.21875 -0.734375 Z M 15.359375 -42.796875 C 15.359375 -41.523438 14.898438 -40.421875 13.984375 -39.484375 C 13.066406 -38.546875 11.957031 -38.078125 10.65625 -38.078125 C 9.382812 -38.078125 8.28125 -38.546875 7.34375 -39.484375 C 6.40625 -40.421875 5.9375 -41.523438 5.9375 -42.796875 C 5.9375 -44.097656 6.40625 -45.207031 7.34375 -46.125 C 8.28125 -47.039062 9.382812 -47.5 10.65625 -47.5 C 11.957031 -47.5 13.066406 -47.039062 13.984375 -46.125 C 14.898438 -45.207031 15.359375 -44.097656 15.359375 -42.796875 Z M 15.359375 -42.796875 "/></g></g></g><g fill="#ffffff" fill-opacity="1"><g transform="translate(311.163534, 256.177368)"><g><path d="M 25.828125 -9 C 25.828125 -7.082031 25.421875 -5.519531 24.609375 -4.3125 C 23.796875 -3.113281 22.710938 -2.1875 21.359375 -1.53125 C 20.015625 -0.875 18.554688 -0.421875 16.984375 -0.171875 C 15.410156 0.0664062 13.851562 0.1875 12.3125 0.1875 C 11.289062 0.1875 10.289062 0.0859375 9.3125 -0.109375 C 8.332031 -0.316406 7.347656 -0.546875 6.359375 -0.796875 C 5.953125 -0.878906 5.523438 -0.96875 5.078125 -1.0625 C 4.628906 -1.164062 4.179688 -1.21875 3.734375 -1.21875 C 3.566406 -1.789062 3.332031 -2.640625 3.03125 -3.765625 C 2.726562 -4.890625 2.441406 -5.988281 2.171875 -7.0625 C 1.910156 -8.144531 1.78125 -8.910156 1.78125 -9.359375 C 1.78125 -9.816406 1.921875 -10.101562 2.203125 -10.21875 C 2.484375 -10.34375 2.789062 -10.40625 3.125 -10.40625 C 3.613281 -10.40625 3.976562 -10.222656 4.21875 -9.859375 C 4.832031 -9.003906 5.320312 -8.101562 5.6875 -7.15625 C 6.0625 -6.21875 6.632812 -5.34375 7.40625 -4.53125 C 7.976562 -3.914062 8.804688 -3.289062 9.890625 -2.65625 C 10.972656 -2.03125 11.941406 -1.71875 12.796875 -1.71875 C 14.628906 -1.71875 16.003906 -2.144531 16.921875 -3 C 17.835938 -3.851562 18.296875 -5.21875 18.296875 -7.09375 C 18.296875 -8.363281 17.910156 -9.425781 17.140625 -10.28125 C 16.367188 -11.144531 15.378906 -11.921875 14.171875 -12.609375 C 12.960938 -13.304688 11.6875 -13.988281 10.34375 -14.65625 C 9 -15.332031 7.722656 -16.078125 6.515625 -16.890625 C 5.316406 -17.710938 4.328125 -18.703125 3.546875 -19.859375 C 2.773438 -21.023438 2.390625 -22.445312 2.390625 -24.125 C 2.390625 -26.207031 2.957031 -27.898438 4.09375 -29.203125 C 5.238281 -30.503906 6.695312 -31.460938 8.46875 -32.078125 C 10.25 -32.691406 12.035156 -33 13.828125 -33 C 14.648438 -33 15.445312 -32.9375 16.21875 -32.8125 C 17 -32.6875 17.773438 -32.460938 18.546875 -32.140625 C 18.910156 -32.015625 19.410156 -31.859375 20.046875 -31.671875 C 20.679688 -31.492188 21.179688 -31.40625 21.546875 -31.40625 C 22.078125 -31.40625 22.585938 -31.46875 23.078125 -31.59375 C 23.160156 -30.445312 23.289062 -29.300781 23.46875 -28.15625 C 23.65625 -27.019531 23.769531 -25.878906 23.8125 -24.734375 L 23.8125 -24.546875 C 23.851562 -24.140625 23.738281 -23.800781 23.46875 -23.53125 C 23.207031 -23.269531 22.894531 -23.140625 22.53125 -23.140625 C 22.125 -23.140625 21.828125 -23.21875 21.640625 -23.375 C 21.453125 -23.539062 21.28125 -23.789062 21.125 -24.125 C 20.59375 -25.300781 20.070312 -26.429688 19.5625 -27.515625 C 19.050781 -28.597656 18.375 -29.484375 17.53125 -30.171875 C 16.695312 -30.867188 15.503906 -31.21875 13.953125 -31.21875 C 12.328125 -31.21875 11.125 -30.582031 10.34375 -29.3125 C 9.570312 -28.050781 9.1875 -26.707031 9.1875 -25.28125 C 9.1875 -24.132812 9.613281 -23.15625 10.46875 -22.34375 C 11.320312 -21.53125 12.195312 -20.878906 13.09375 -20.390625 C 14.195312 -19.816406 15.472656 -19.179688 16.921875 -18.484375 C 18.367188 -17.796875 19.765625 -17 21.109375 -16.09375 C 22.460938 -15.195312 23.585938 -14.164062 24.484375 -13 C 25.378906 -11.84375 25.828125 -10.507812 25.828125 -9 Z M 25.828125 -9 "/></g></g></g><path stroke-linecap="butt" transform="matrix(3, 0, 0, 3, 0.0000045, 193.856238)" fill="none" stroke-linejoin="miter" d="M -0.0000015 -0.000256573 L 125.000007 -0.000256573 " stroke="#ffffff" stroke-width="1" stroke-opacity="1" stroke-miterlimit="4"/></svg>