<svg xmlns="http://www.w3.org/2000/svg" xmlns:xlink="http://www.w3.org/1999/xlink" width="500" zoomAndPan="magnify" viewBox="0 0 375 374.999991" height="500" preserveAspectRatio="xMidYMid meet" version="1.0"><defs><clipPath id="93f9597e59"><path d="M 58.375 58.375 L 316.375 58.375 L 316.375 316.375 L 58.375 316.375 Z M 58.375 58.375 " clip-rule="nonzero"/></clipPath></defs><path stroke-linecap="butt" transform="matrix(25.499998, 0, 0, 25.499998, 0.0000045, 187.499988)" fill="none" stroke-linejoin="miter" d="M -0.000000176471 0.000000482843 L 14.705883 0.000000482843 " stroke="#df7919" stroke-width="1" stroke-opacity="1" stroke-miterlimit="4"/><path stroke-linecap="butt" transform="matrix(0.000000000000001562, -25.50239, 25.499998, 0.000000000000001561, 187.496769, 376.482398)" fill="none" stroke-linejoin="miter" d="M 0.0000756371 -0.0000264799 L 14.704733 -0.0000264799 " stroke="#df7919" stroke-width="1" stroke-opacity="1" stroke-miterlimit="4"/><g clip-path="url(#93f9597e59)"><path fill="#df7919" d="M 187.375 58.375 C 116.101562 58.375 58.375 116.101562 58.375 187.375 C 58.375 258.648438 116.101562 316.375 187.375 316.375 C 258.648438 316.375 316.375 258.648438 316.375 187.375 C 316.375 116.101562 258.648438 58.375 187.375 58.375 Z M 187.375 290.574219 C 130.359375 290.574219 84.175781 244.394531 84.175781 187.375 C 84.175781 130.359375 130.359375 84.175781 187.375 84.175781 C 244.394531 84.175781 290.574219 130.359375 290.574219 187.375 C 290.574219 244.394531 244.394531 290.574219 187.375 290.574219 Z M 187.375 290.574219 " fill-opacity="1" fill-rule="nonzero"/></g></svg>