<svg xmlns="http://www.w3.org/2000/svg" xmlns:xlink="http://www.w3.org/1999/xlink" width="500" zoomAndPan="magnify" viewBox="0 0 375 374.999991" height="500" preserveAspectRatio="xMidYMid meet" version="1.0"><defs><g/></defs><g fill="#ffffff" fill-opacity="1"><g transform="translate(45.902675, 184.006145)"><g><path d="M 21.78125 -35.984375 C 21.882812 -36.054688 21.832031 -36.347656 21.625 -36.859375 C 21.425781 -37.367188 21.296875 -37.789062 21.234375 -38.125 L 23.765625 -38.125 L 28.71875 -29.578125 L 27.28125 -28.40625 L 26.21875 -29.78125 L 24.1875 -31.71875 C 23.0625 -32.832031 21.960938 -33.625 20.890625 -34.09375 C 19.828125 -34.570312 18.222656 -34.8125 16.078125 -34.8125 C 13.941406 -34.8125 12.109375 -34.066406 10.578125 -32.578125 C 9.054688 -31.085938 8.296875 -29.5625 8.296875 -28 C 8.296875 -26.4375 8.804688 -25.25 9.828125 -24.4375 C 10.847656 -23.625 12.078125 -22.910156 13.515625 -22.296875 C 14.953125 -21.679688 16.03125 -21.289062 16.75 -21.125 C 20.550781 -20.207031 23.300781 -19.171875 25 -18.015625 C 28.25 -15.847656 29.875 -13.050781 29.875 -9.625 C 29.875 -7.757812 29.390625 -6.101562 28.421875 -4.65625 C 27.460938 -3.21875 26.507812 -2.191406 25.5625 -1.578125 C 23.175781 -0.015625 19.984375 0.765625 15.984375 0.765625 C 13.578125 0.765625 11.367188 0.1875 9.359375 -0.96875 L 8.609375 -1.421875 L 8.703125 -0.515625 C 8.804688 -0.171875 8.910156 0.148438 9.015625 0.453125 L 6.46875 0.453125 L 1.53125 -8.09375 L 2.953125 -9.265625 L 4.015625 -7.890625 L 6.0625 -5.953125 C 8.539062 -3.410156 11.269531 -2.140625 14.25 -2.140625 C 14.351562 -2.140625 14.457031 -2.140625 14.5625 -2.140625 C 17.644531 -2.242188 20.09375 -3.070312 21.90625 -4.625 C 23.726562 -6.1875 24.640625 -7.820312 24.640625 -9.53125 C 24.640625 -11.25 24.300781 -12.453125 23.625 -13.140625 C 22.164062 -14.597656 20.925781 -15.476562 19.90625 -15.78125 C 14.914062 -17.269531 11.03125 -18.695312 8.25 -20.0625 C 4.988281 -21.6875 3.359375 -24.160156 3.359375 -27.484375 L 3.359375 -27.6875 C 3.359375 -29.351562 3.738281 -30.863281 4.5 -32.21875 C 5.269531 -33.582031 6.265625 -34.632812 7.484375 -35.375 C 9.960938 -36.875 12.4375 -37.625 14.90625 -37.625 C 17.382812 -37.625 19.675781 -37.078125 21.78125 -35.984375 Z M 21.78125 -35.984375 "/></g></g></g><g fill="#ffffff" fill-opacity="1"><g transform="translate(78.329908, 184.006145)"><g><path d="M 13.8125 0.96875 C 10.375 0.96875 7.46875 -0.351562 5.09375 -3 C 2.71875 -5.644531 1.53125 -8.816406 1.53125 -12.515625 C 1.53125 -16.222656 2.71875 -19.429688 5.09375 -22.140625 C 7.46875 -24.859375 10.375 -26.21875 13.8125 -26.21875 C 17.257812 -26.21875 20.226562 -24.859375 22.71875 -22.140625 C 25.21875 -19.429688 26.46875 -16.222656 26.46875 -12.515625 C 26.46875 -8.816406 25.21875 -5.644531 22.71875 -3 C 20.226562 -0.351562 17.257812 0.96875 13.8125 0.96875 Z M 21.4375 -12.578125 C 21.4375 -15.492188 20.628906 -18.007812 19.015625 -20.125 C 17.398438 -22.25 15.554688 -23.3125 13.484375 -23.3125 C 11.421875 -23.3125 9.703125 -22.234375 8.328125 -20.078125 C 6.953125 -17.921875 6.265625 -15.375 6.265625 -12.4375 C 6.265625 -9.507812 7.066406 -7.019531 8.671875 -4.96875 C 10.285156 -2.914062 12.101562 -1.890625 14.125 -1.890625 C 16.144531 -1.890625 17.867188 -2.941406 19.296875 -5.046875 C 20.722656 -7.148438 21.4375 -9.660156 21.4375 -12.578125 Z M 21.4375 -12.578125 "/></g></g></g><g fill="#ffffff" fill-opacity="1"><g transform="translate(106.328311, 184.006145)"><g><path d="M 22.65625 -3.515625 L 22.65625 -0.859375 C 20.613281 0.0859375 18.710938 0.5625 16.953125 0.5625 L 16.296875 0.5625 C 12.316406 0.5625 8.988281 -0.71875 6.3125 -3.28125 C 3.632812 -5.84375 2.296875 -8.988281 2.296875 -12.71875 C 2.296875 -16.457031 3.742188 -19.566406 6.640625 -22.046875 C 9.546875 -24.523438 12.832031 -25.765625 16.5 -25.765625 C 19.238281 -25.765625 21.390625 -25.238281 22.953125 -24.1875 L 21.640625 -20.515625 C 20.109375 -21.835938 18.53125 -22.5 16.90625 -22.5 C 14.394531 -22.5 12.171875 -21.53125 10.234375 -19.59375 C 8.296875 -17.664062 7.328125 -15.332031 7.328125 -12.59375 C 7.328125 -9.863281 8.363281 -7.460938 10.4375 -5.390625 C 12.507812 -3.328125 14.96875 -2.296875 17.8125 -2.296875 C 19.582031 -2.296875 21.195312 -2.703125 22.65625 -3.515625 Z M 22.65625 -3.515625 "/></g></g></g><g fill="#ffffff" fill-opacity="1"><g transform="translate(131.323247, 184.006145)"><g><path d="M 5.359375 -31.9375 C 4.703125 -32.601562 4.375 -33.394531 4.375 -34.3125 C 4.375 -35.226562 4.703125 -36.015625 5.359375 -36.671875 C 6.023438 -37.335938 6.816406 -37.671875 7.734375 -37.671875 C 8.648438 -37.671875 9.4375 -37.335938 10.09375 -36.671875 C 10.757812 -36.015625 11.09375 -35.226562 11.09375 -34.3125 C 11.09375 -33.394531 10.757812 -32.601562 10.09375 -31.9375 C 9.4375 -31.28125 8.648438 -30.953125 7.734375 -30.953125 C 6.816406 -30.953125 6.023438 -31.28125 5.359375 -31.9375 Z M 9.78125 -3.8125 C 10.007812 -2.800781 10.617188 -2.296875 11.609375 -2.296875 L 13.75 -2.296875 L 13.75 0 L 1.265625 0 L 1.265625 -2.296875 L 3.96875 -2.34375 C 4.644531 -2.476562 5.171875 -2.96875 5.546875 -3.8125 L 5.546875 -21.375 L 1.734375 -21.375 L 1.734375 -22.40625 L 7.78125 -26.46875 L 9.78125 -26.46875 Z M 9.78125 -3.8125 "/></g></g></g><g fill="#ffffff" fill-opacity="1"><g transform="translate(146.340573, 184.006145)"><g><path d="M 26.921875 -2.703125 C 26.378906 -0.460938 25.203125 0.65625 23.390625 0.65625 C 21.578125 0.65625 20.296875 -0.546875 19.546875 -2.953125 C 17.679688 -0.503906 15.546875 0.71875 13.140625 0.71875 C 10.210938 0.71875 7.710938 0 5.640625 -1.4375 C 3.578125 -2.882812 2.546875 -4.695312 2.546875 -6.875 L 2.546875 -7.03125 C 2.546875 -10.820312 4.679688 -13.722656 8.953125 -15.734375 C 11.328125 -16.847656 13.210938 -17.40625 14.609375 -17.40625 C 16.003906 -17.40625 17.648438 -17 19.546875 -16.1875 L 19.59375 -18.421875 C 19.59375 -20.296875 19.289062 -21.535156 18.6875 -22.140625 C 17.363281 -23.367188 15.613281 -23.984375 13.4375 -23.984375 C 11.269531 -23.984375 8.234375 -22.757812 4.328125 -20.3125 L 4.21875 -24.28125 C 7.476562 -25.90625 10.804688 -26.71875 14.203125 -26.71875 L 14.453125 -26.71875 C 16.523438 -26.71875 18.597656 -25.972656 20.671875 -24.484375 C 21.753906 -23.703125 22.625 -22.664062 23.28125 -21.375 C 23.945312 -20.09375 24.28125 -18.648438 24.28125 -17.046875 L 24.28125 -3.359375 C 24.488281 -3.117188 24.742188 -3 25.046875 -3 C 25.109375 -3 25.734375 -3.660156 26.921875 -4.984375 Z M 19.546875 -12.171875 C 19.273438 -13.691406 18.035156 -14.453125 15.828125 -14.453125 L 15.53125 -14.453125 C 13.832031 -14.453125 12.082031 -13.6875 10.28125 -12.15625 C 8.476562 -10.632812 7.578125 -9.007812 7.578125 -7.28125 C 7.578125 -7.039062 7.597656 -6.800781 7.640625 -6.5625 C 7.972656 -3.78125 9.851562 -2.390625 13.28125 -2.390625 C 15.050781 -2.390625 16.359375 -2.8125 17.203125 -3.65625 C 18.054688 -4.507812 18.597656 -5.222656 18.828125 -5.796875 C 19.066406 -6.378906 19.242188 -7.109375 19.359375 -7.984375 C 19.484375 -8.867188 19.546875 -9.445312 19.546875 -9.71875 Z M 19.546875 -12.171875 "/></g></g></g><g fill="#ffffff" fill-opacity="1"><g transform="translate(174.797129, 184.006145)"><g><path d="M 9.0625 -37.671875 L 9.0625 -3.8125 C 9.300781 -2.800781 9.742188 -2.296875 10.390625 -2.296875 L 13.078125 -2.296875 L 13.078125 0 L 0.8125 0 L 0.8125 -2.296875 L 3.765625 -2.34375 C 3.867188 -2.476562 4.226562 -2.96875 4.84375 -3.8125 L 4.84375 -32.578125 L 1.015625 -32.578125 L 1.015625 -33.59375 L 7.078125 -37.671875 Z M 9.0625 -37.671875 "/></g></g></g><g fill="#ffffff" fill-opacity="1"><g transform="translate(188.389082, 184.006145)"><g/></g></g><g fill="#ffffff" fill-opacity="1"><g transform="translate(203.660935, 184.006145)"><g><path d="M 21.78125 -35.984375 C 21.882812 -36.054688 21.832031 -36.347656 21.625 -36.859375 C 21.425781 -37.367188 21.296875 -37.789062 21.234375 -38.125 L 23.765625 -38.125 L 28.71875 -29.578125 L 27.28125 -28.40625 L 26.21875 -29.78125 L 24.1875 -31.71875 C 23.0625 -32.832031 21.960938 -33.625 20.890625 -34.09375 C 19.828125 -34.570312 18.222656 -34.8125 16.078125 -34.8125 C 13.941406 -34.8125 12.109375 -34.066406 10.578125 -32.578125 C 9.054688 -31.085938 8.296875 -29.5625 8.296875 -28 C 8.296875 -26.4375 8.804688 -25.25 9.828125 -24.4375 C 10.847656 -23.625 12.078125 -22.910156 13.515625 -22.296875 C 14.953125 -21.679688 16.03125 -21.289062 16.75 -21.125 C 20.550781 -20.207031 23.300781 -19.171875 25 -18.015625 C 28.25 -15.847656 29.875 -13.050781 29.875 -9.625 C 29.875 -7.757812 29.390625 -6.101562 28.421875 -4.65625 C 27.460938 -3.21875 26.507812 -2.191406 25.5625 -1.578125 C 23.175781 -0.015625 19.984375 0.765625 15.984375 0.765625 C 13.578125 0.765625 11.367188 0.1875 9.359375 -0.96875 L 8.609375 -1.421875 L 8.703125 -0.515625 C 8.804688 -0.171875 8.910156 0.148438 9.015625 0.453125 L 6.46875 0.453125 L 1.53125 -8.09375 L 2.953125 -9.265625 L 4.015625 -7.890625 L 6.0625 -5.953125 C 8.539062 -3.410156 11.269531 -2.140625 14.25 -2.140625 C 14.351562 -2.140625 14.457031 -2.140625 14.5625 -2.140625 C 17.644531 -2.242188 20.09375 -3.070312 21.90625 -4.625 C 23.726562 -6.1875 24.640625 -7.820312 24.640625 -9.53125 C 24.640625 -11.25 24.300781 -12.453125 23.625 -13.140625 C 22.164062 -14.597656 20.925781 -15.476562 19.90625 -15.78125 C 14.914062 -17.269531 11.03125 -18.695312 8.25 -20.0625 C 4.988281 -21.6875 3.359375 -24.160156 3.359375 -27.484375 L 3.359375 -27.6875 C 3.359375 -29.351562 3.738281 -30.863281 4.5 -32.21875 C 5.269531 -33.582031 6.265625 -34.632812 7.484375 -35.375 C 9.960938 -36.875 12.4375 -37.625 14.90625 -37.625 C 17.382812 -37.625 19.675781 -37.078125 21.78125 -35.984375 Z M 21.78125 -35.984375 "/></g></g></g><g fill="#ffffff" fill-opacity="1"><g transform="translate(236.088168, 184.006145)"><g><path d="M 14.453125 0.453125 C 8.585938 0.453125 5.65625 -1.90625 5.65625 -6.625 L 5.65625 -21.578125 L 1.015625 -21.578125 L 1.015625 -24.03125 L 2.953125 -24.03125 C 5.460938 -24.164062 6.890625 -26.269531 7.234375 -30.34375 L 9.984375 -33.5 L 9.984375 -24.03125 L 15.984375 -24.03125 L 15.984375 -21.578125 L 9.984375 -21.578125 L 9.984375 -8.40625 C 9.984375 -5.789062 10.378906 -4.097656 11.171875 -3.328125 C 11.972656 -2.566406 13.117188 -2.1875 14.609375 -2.1875 C 16.097656 -2.1875 17.234375 -2.472656 18.015625 -3.046875 L 18.015625 0.15625 C 17.503906 0.351562 16.828125 0.453125 15.984375 0.453125 Z M 14.453125 0.453125 "/></g></g></g><g fill="#ffffff" fill-opacity="1"><g transform="translate(254.872556, 184.006145)"><g><path d="M 9.78125 -21.84375 C 9.78125 -21.632812 9.796875 -21.328125 9.828125 -20.921875 L 17.359375 -5.296875 L 24.1875 -20.921875 L 24.1875 -21.53125 C 24.1875 -21.832031 24.148438 -22.160156 24.078125 -22.515625 C 24.015625 -22.878906 23.675781 -23.113281 23.0625 -23.21875 L 23.0625 -23.265625 L 20.765625 -23.265625 L 20.765625 -25.5625 L 31 -25.5625 L 31 -23.265625 L 29.21875 -23.265625 C 29.15625 -23.191406 28.859375 -22.9375 28.328125 -22.5 C 27.804688 -22.0625 27.425781 -21.535156 27.1875 -20.921875 C 20.15625 -5.078125 16.300781 3.488281 15.625 4.78125 C 13.894531 8.039062 10.960938 9.671875 6.828125 9.671875 L 3.46875 9.671875 L 3.46875 6.515625 C 5.664062 6.722656 6.851562 6.875 7.03125 6.96875 C 10.28125 6.96875 12.566406 5.578125 13.890625 2.796875 C 14.609375 1.304688 14.96875 0.484375 14.96875 0.328125 C 14.96875 0.179688 14.953125 0.0703125 14.921875 0 L 4.328125 -21.9375 C 3.890625 -22.75 3.378906 -23.191406 2.796875 -23.265625 L 0.765625 -23.265625 L 0.765625 -25.5625 L 13.140625 -25.5625 L 13.140625 -23.265625 L 11 -23.265625 L 11 -23.21875 C 10.1875 -23.175781 9.78125 -22.71875 9.78125 -21.84375 Z M 9.78125 -21.84375 "/></g></g></g><g fill="#ffffff" fill-opacity="1"><g transform="translate(286.943454, 184.006145)"><g><path d="M 9.0625 -37.671875 L 9.0625 -3.8125 C 9.300781 -2.800781 9.742188 -2.296875 10.390625 -2.296875 L 13.078125 -2.296875 L 13.078125 0 L 0.8125 0 L 0.8125 -2.296875 L 3.765625 -2.34375 C 3.867188 -2.476562 4.226562 -2.96875 4.84375 -3.8125 L 4.84375 -32.578125 L 1.015625 -32.578125 L 1.015625 -33.59375 L 7.078125 -37.671875 Z M 9.0625 -37.671875 "/></g></g></g><g fill="#ffffff" fill-opacity="1"><g transform="translate(300.535395, 184.006145)"><g><path d="M 25.25 -1.734375 C 22.257812 -0.0664062 19.035156 0.765625 15.578125 0.765625 C 15.503906 0.765625 15.4375 0.765625 15.375 0.765625 C 11.269531 0.765625 8.035156 -0.421875 5.671875 -2.796875 C 3.316406 -5.171875 2.140625 -8.460938 2.140625 -12.671875 C 2.140625 -16.878906 3.289062 -20.101562 5.59375 -22.34375 C 8.144531 -24.757812 11.363281 -25.96875 15.25 -25.96875 C 19.132812 -25.96875 21.984375 -24.742188 23.796875 -22.296875 C 25.609375 -19.847656 26.515625 -16.757812 26.515625 -13.03125 L 26.515625 -11.8125 L 6.96875 -11.8125 C 7.175781 -9.164062 8.078125 -6.875 9.671875 -4.9375 C 11.367188 -2.96875 13.742188 -1.984375 16.796875 -1.984375 C 19.847656 -1.984375 22.734375 -2.984375 25.453125 -4.984375 Z M 22.34375 -14.453125 C 22.238281 -20.023438 19.96875 -22.8125 15.53125 -22.8125 L 15.421875 -22.8125 C 10.566406 -22.8125 7.75 -20.023438 6.96875 -14.453125 Z M 22.34375 -14.453125 "/></g></g></g><g fill="#ffffff" fill-opacity="1"><g transform="translate(59.777674, 247.006141)"><g/></g></g><g fill="#ffffff" fill-opacity="1"><g transform="translate(75.047204, 247.006141)"><g><path d="M 23.765625 -37.421875 C 26.015625 -37.421875 28.207031 -36.492188 30.34375 -34.640625 C 32.476562 -32.796875 34.191406 -30.410156 35.484375 -27.484375 C 36.773438 -24.566406 37.421875 -21.65625 37.421875 -18.75 C 37.421875 -15.851562 36.78125 -12.96875 35.5 -10.09375 C 34.226562 -7.226562 32.445312 -4.828125 30.15625 -2.890625 C 27.863281 -0.960938 25.414062 0 22.8125 0 L 2.03125 0 L 2.03125 -2.296875 L 5.65625 -2.296875 C 6.601562 -2.429688 7.296875 -2.921875 7.734375 -3.765625 L 7.734375 -32.828125 C 7.628906 -33.410156 7.363281 -33.910156 6.9375 -34.328125 C 6.519531 -34.753906 5.988281 -35.019531 5.34375 -35.125 L 2.03125 -35.125 L 2.03125 -37.421875 Z M 20.71875 -2.546875 C 22.851562 -2.546875 24.785156 -3.34375 26.515625 -4.9375 C 28.253906 -6.53125 29.570312 -8.539062 30.46875 -10.96875 C 31.363281 -13.394531 31.8125 -16.054688 31.8125 -18.953125 C 31.8125 -21.859375 31.351562 -24.539062 30.4375 -27 C 29.519531 -29.46875 28.1875 -31.429688 26.4375 -32.890625 C 24.695312 -34.347656 22.6875 -35.078125 20.40625 -35.078125 L 14.65625 -35.078125 C 13.738281 -34.941406 13.046875 -34.429688 12.578125 -33.546875 L 12.578125 -4.625 C 12.742188 -3.644531 13.269531 -2.953125 14.15625 -2.546875 Z M 20.71875 -2.546875 "/></g></g></g><g fill="#ffffff" fill-opacity="1"><g transform="translate(115.008551, 247.006141)"><g><path d="M 5.359375 -31.9375 C 4.703125 -32.601562 4.375 -33.394531 4.375 -34.3125 C 4.375 -35.226562 4.703125 -36.015625 5.359375 -36.671875 C 6.023438 -37.335938 6.816406 -37.671875 7.734375 -37.671875 C 8.648438 -37.671875 9.4375 -37.335938 10.09375 -36.671875 C 10.757812 -36.015625 11.09375 -35.226562 11.09375 -34.3125 C 11.09375 -33.394531 10.757812 -32.601562 10.09375 -31.9375 C 9.4375 -31.28125 8.648438 -30.953125 7.734375 -30.953125 C 6.816406 -30.953125 6.023438 -31.28125 5.359375 -31.9375 Z M 9.78125 -3.8125 C 10.007812 -2.800781 10.617188 -2.296875 11.609375 -2.296875 L 13.75 -2.296875 L 13.75 0 L 1.265625 0 L 1.265625 -2.296875 L 3.96875 -2.34375 C 4.644531 -2.476562 5.171875 -2.96875 5.546875 -3.8125 L 5.546875 -21.375 L 1.734375 -21.375 L 1.734375 -22.40625 L 7.78125 -26.46875 L 9.78125 -26.46875 Z M 9.78125 -3.8125 "/></g></g></g><g fill="#ffffff" fill-opacity="1"><g transform="translate(130.025876, 247.006141)"><g><path d="M 26.921875 -2.703125 C 26.378906 -0.460938 25.203125 0.65625 23.390625 0.65625 C 21.578125 0.65625 20.296875 -0.546875 19.546875 -2.953125 C 17.679688 -0.503906 15.546875 0.71875 13.140625 0.71875 C 10.210938 0.71875 7.710938 0 5.640625 -1.4375 C 3.578125 -2.882812 2.546875 -4.695312 2.546875 -6.875 L 2.546875 -7.03125 C 2.546875 -10.820312 4.679688 -13.722656 8.953125 -15.734375 C 11.328125 -16.847656 13.210938 -17.40625 14.609375 -17.40625 C 16.003906 -17.40625 17.648438 -17 19.546875 -16.1875 L 19.59375 -18.421875 C 19.59375 -20.296875 19.289062 -21.535156 18.6875 -22.140625 C 17.363281 -23.367188 15.613281 -23.984375 13.4375 -23.984375 C 11.269531 -23.984375 8.234375 -22.757812 4.328125 -20.3125 L 4.21875 -24.28125 C 7.476562 -25.90625 10.804688 -26.71875 14.203125 -26.71875 L 14.453125 -26.71875 C 16.523438 -26.71875 18.597656 -25.972656 20.671875 -24.484375 C 21.753906 -23.703125 22.625 -22.664062 23.28125 -21.375 C 23.945312 -20.09375 24.28125 -18.648438 24.28125 -17.046875 L 24.28125 -3.359375 C 24.488281 -3.117188 24.742188 -3 25.046875 -3 C 25.109375 -3 25.734375 -3.660156 26.921875 -4.984375 Z M 19.546875 -12.171875 C 19.273438 -13.691406 18.035156 -14.453125 15.828125 -14.453125 L 15.53125 -14.453125 C 13.832031 -14.453125 12.082031 -13.6875 10.28125 -12.15625 C 8.476562 -10.632812 7.578125 -9.007812 7.578125 -7.28125 C 7.578125 -7.039062 7.597656 -6.800781 7.640625 -6.5625 C 7.972656 -3.78125 9.851562 -2.390625 13.28125 -2.390625 C 15.050781 -2.390625 16.359375 -2.8125 17.203125 -3.65625 C 18.054688 -4.507812 18.597656 -5.222656 18.828125 -5.796875 C 19.066406 -6.378906 19.242188 -7.109375 19.359375 -7.984375 C 19.484375 -8.867188 19.546875 -9.445312 19.546875 -9.71875 Z M 19.546875 -12.171875 "/></g></g></g><g fill="#ffffff" fill-opacity="1"><g transform="translate(158.482433, 247.006141)"><g><path d="M 17.71875 0.3125 L 10.484375 0.65625 C 9.296875 0.65625 8.296875 0.585938 7.484375 0.453125 C 6.328125 0.898438 5.75 2.34375 5.75 4.78125 C 5.75 5.257812 6.238281 6.023438 7.21875 7.078125 C 8.207031 8.128906 10.820312 8.65625 15.0625 8.65625 C 17.238281 8.65625 18.800781 8.503906 19.75 8.203125 C 22.289062 7.285156 23.5625 5.941406 23.5625 4.171875 C 23.5625 2.410156 22.734375 1.328125 21.078125 0.921875 C 20.023438 0.515625 18.90625 0.3125 17.71875 0.3125 Z M 6.265625 -9.78125 C 3.441406 -11.78125 2.03125 -14.289062 2.03125 -17.3125 C 2.03125 -19.789062 3.148438 -21.921875 5.390625 -23.703125 C 7.628906 -25.484375 9.976562 -26.375 12.4375 -26.375 C 14.90625 -26.375 16.800781 -26.082031 18.125 -25.5 L 26.3125 -25.5 L 26.3125 -23.3125 L 21.234375 -23.3125 C 22.890625 -21.613281 23.71875 -19.5625 23.71875 -17.15625 C 23.71875 -14.75 22.75 -12.65625 20.8125 -10.875 C 18.882812 -9.09375 16.238281 -8.203125 12.875 -8.203125 C 10.84375 -8.203125 9.25 -8.421875 8.09375 -8.859375 C 6.90625 -8.347656 6.3125 -7.328125 6.3125 -5.796875 C 6.3125 -5.359375 6.5 -4.921875 6.875 -4.484375 C 7.414062 -3.941406 9.992188 -3.671875 14.609375 -3.671875 L 19.25 -3.71875 C 22.46875 -3.71875 24.773438 -2.597656 26.171875 -0.359375 C 26.710938 0.492188 26.984375 1.425781 26.984375 2.4375 C 26.984375 7.195312 24.554688 9.929688 19.703125 10.640625 C 18.109375 10.878906 15.765625 11 12.671875 11 C 9.585938 11 7.28125 10.726562 5.75 10.1875 C 3.71875 9.5 2.429688 7.953125 1.890625 5.546875 C 1.816406 5.242188 1.78125 4.84375 1.78125 4.34375 C 1.78125 3.851562 2.0625 3.097656 2.625 2.078125 C 3.1875 1.066406 4.128906 0.203125 5.453125 -0.515625 C 3.710938 -1.328125 2.84375 -2.582031 2.84375 -4.28125 C 2.84375 -7.125 3.984375 -8.957031 6.265625 -9.78125 Z M 17.640625 -22.109375 C 16.609375 -23.453125 15.175781 -24.125 13.34375 -24.125 C 11.507812 -24.125 9.910156 -23.453125 8.546875 -22.109375 C 7.191406 -20.773438 6.515625 -19.164062 6.515625 -17.28125 C 6.515625 -15.394531 7.191406 -13.78125 8.546875 -12.4375 C 9.910156 -11.101562 11.507812 -10.4375 13.34375 -10.4375 C 15.175781 -10.4375 16.609375 -11.101562 17.640625 -12.4375 C 18.671875 -13.78125 19.1875 -15.394531 19.1875 -17.28125 C 19.1875 -19.164062 18.671875 -20.773438 17.640625 -22.109375 Z M 17.640625 -22.109375 "/></g></g></g><g fill="#ffffff" fill-opacity="1"><g transform="translate(187.49896, 247.006141)"><g><path d="M 9.359375 -21.171875 C 10.617188 -24.398438 13.390625 -26.015625 17.671875 -26.015625 C 24.210938 -25.984375 27.484375 -21.789062 27.484375 -13.4375 L 27.484375 -3.8125 C 27.722656 -2.800781 28.335938 -2.296875 29.328125 -2.296875 L 31.25 -2.296875 L 31.25 0 L 19.5 0 L 19.5 -2.296875 L 21.6875 -2.34375 C 22.363281 -2.476562 22.890625 -2.96875 23.265625 -3.8125 L 23.265625 -12.421875 C 23.265625 -19.617188 21.28125 -23.21875 17.3125 -23.21875 C 12.007812 -23.21875 9.359375 -19.769531 9.359375 -12.875 L 9.359375 -3.8125 C 9.597656 -2.800781 10.210938 -2.296875 11.203125 -2.296875 L 13.140625 -2.296875 L 13.140625 0 L 1.375 0 L 1.375 -2.296875 L 3.5625 -2.34375 C 4.238281 -2.476562 4.765625 -2.96875 5.140625 -3.8125 L 5.140625 -21.375 L 1.328125 -21.375 L 1.328125 -22.40625 L 7.375 -26.46875 L 9.359375 -26.46875 Z M 9.359375 -21.171875 "/></g></g></g><g fill="#ffffff" fill-opacity="1"><g transform="translate(220.282538, 247.006141)"><g><path d="M 13.8125 0.96875 C 10.375 0.96875 7.46875 -0.351562 5.09375 -3 C 2.71875 -5.644531 1.53125 -8.816406 1.53125 -12.515625 C 1.53125 -16.222656 2.71875 -19.429688 5.09375 -22.140625 C 7.46875 -24.859375 10.375 -26.21875 13.8125 -26.21875 C 17.257812 -26.21875 20.226562 -24.859375 22.71875 -22.140625 C 25.21875 -19.429688 26.46875 -16.222656 26.46875 -12.515625 C 26.46875 -8.816406 25.21875 -5.644531 22.71875 -3 C 20.226562 -0.351562 17.257812 0.96875 13.8125 0.96875 Z M 21.4375 -12.578125 C 21.4375 -15.492188 20.628906 -18.007812 19.015625 -20.125 C 17.398438 -22.25 15.554688 -23.3125 13.484375 -23.3125 C 11.421875 -23.3125 9.703125 -22.234375 8.328125 -20.078125 C 6.953125 -17.921875 6.265625 -15.375 6.265625 -12.4375 C 6.265625 -9.507812 7.066406 -7.019531 8.671875 -4.96875 C 10.285156 -2.914062 12.101562 -1.890625 14.125 -1.890625 C 16.144531 -1.890625 17.867188 -2.941406 19.296875 -5.046875 C 20.722656 -7.148438 21.4375 -9.660156 21.4375 -12.578125 Z M 21.4375 -12.578125 "/></g></g></g><g fill="#ffffff" fill-opacity="1"><g transform="translate(248.280942, 247.006141)"><g><path d="M 13.390625 -2.34375 C 17.328125 -2.34375 19.296875 -3.582031 19.296875 -6.0625 C 19.296875 -7.3125 19.003906 -8.109375 18.421875 -8.453125 C 16.898438 -9.367188 15.832031 -9.828125 15.21875 -9.828125 C 15.1875 -9.828125 14.097656 -10.101562 11.953125 -10.65625 C 9.816406 -11.21875 8.101562 -11.796875 6.8125 -12.390625 C 5.53125 -12.984375 4.503906 -13.796875 3.734375 -14.828125 C 2.972656 -15.867188 2.59375 -17.054688 2.59375 -18.390625 C 2.59375 -19.734375 2.945312 -20.90625 3.65625 -21.90625 C 4.375 -22.914062 5.273438 -23.707031 6.359375 -24.28125 C 8.535156 -25.363281 10.351562 -25.90625 11.8125 -25.90625 C 13.269531 -25.90625 14.742188 -25.582031 16.234375 -24.9375 C 16.203125 -25.070312 16.1875 -25.300781 16.1875 -25.625 C 16.1875 -25.945312 16.082031 -26.265625 15.875 -26.578125 L 18.421875 -26.578125 L 22.8125 -18.890625 L 21.375 -17.71875 L 20.3125 -19.09375 C 17.125 -21.632812 14.640625 -22.90625 12.859375 -22.90625 C 11.078125 -22.90625 9.625 -22.554688 8.5 -21.859375 C 7.382812 -21.171875 6.828125 -20.507812 6.828125 -19.875 C 6.828125 -19.25 7.207031 -18.441406 7.96875 -17.453125 C 8.726562 -16.472656 10.507812 -15.660156 13.3125 -15.015625 C 16.113281 -14.367188 18.140625 -13.742188 19.390625 -13.140625 C 22.078125 -11.773438 23.421875 -9.703125 23.421875 -6.921875 L 23.421875 -6.765625 C 23.421875 -4.660156 22.460938 -2.929688 20.546875 -1.578125 C 18.628906 -0.222656 16.140625 0.453125 13.078125 0.453125 C 11.554688 0.453125 9.863281 0.015625 8 -0.859375 L 8.046875 -0.765625 L 8.140625 -0.609375 L 8.09375 -0.609375 C 8.125 -0.503906 8.140625 -0.273438 8.140625 0.078125 C 8.140625 0.429688 8.242188 0.757812 8.453125 1.0625 L 5.90625 1.0625 L 1.53125 -6.625 L 2.953125 -7.78125 L 4.015625 -6.421875 L 7.4375 -4.015625 C 9.707031 -2.898438 11.691406 -2.34375 13.390625 -2.34375 Z M 13.390625 -2.34375 "/></g></g></g><g fill="#ffffff" fill-opacity="1"><g transform="translate(274.243098, 247.006141)"><g><path d="M 5.359375 -31.9375 C 4.703125 -32.601562 4.375 -33.394531 4.375 -34.3125 C 4.375 -35.226562 4.703125 -36.015625 5.359375 -36.671875 C 6.023438 -37.335938 6.816406 -37.671875 7.734375 -37.671875 C 8.648438 -37.671875 9.4375 -37.335938 10.09375 -36.671875 C 10.757812 -36.015625 11.09375 -35.226562 11.09375 -34.3125 C 11.09375 -33.394531 10.757812 -32.601562 10.09375 -31.9375 C 9.4375 -31.28125 8.648438 -30.953125 7.734375 -30.953125 C 6.816406 -30.953125 6.023438 -31.28125 5.359375 -31.9375 Z M 9.78125 -3.8125 C 10.007812 -2.800781 10.617188 -2.296875 11.609375 -2.296875 L 13.75 -2.296875 L 13.75 0 L 1.265625 0 L 1.265625 -2.296875 L 3.96875 -2.34375 C 4.644531 -2.476562 5.171875 -2.96875 5.546875 -3.8125 L 5.546875 -21.375 L 1.734375 -21.375 L 1.734375 -22.40625 L 7.78125 -26.46875 L 9.78125 -26.46875 Z M 9.78125 -3.8125 "/></g></g></g><g fill="#ffffff" fill-opacity="1"><g transform="translate(289.260424, 247.006141)"><g><path d="M 13.390625 -2.34375 C 17.328125 -2.34375 19.296875 -3.582031 19.296875 -6.0625 C 19.296875 -7.3125 19.003906 -8.109375 18.421875 -8.453125 C 16.898438 -9.367188 15.832031 -9.828125 15.21875 -9.828125 C 15.1875 -9.828125 14.097656 -10.101562 11.953125 -10.65625 C 9.816406 -11.21875 8.101562 -11.796875 6.8125 -12.390625 C 5.53125 -12.984375 4.503906 -13.796875 3.734375 -14.828125 C 2.972656 -15.867188 2.59375 -17.054688 2.59375 -18.390625 C 2.59375 -19.734375 2.945312 -20.90625 3.65625 -21.90625 C 4.375 -22.914062 5.273438 -23.707031 6.359375 -24.28125 C 8.535156 -25.363281 10.351562 -25.90625 11.8125 -25.90625 C 13.269531 -25.90625 14.742188 -25.582031 16.234375 -24.9375 C 16.203125 -25.070312 16.1875 -25.300781 16.1875 -25.625 C 16.1875 -25.945312 16.082031 -26.265625 15.875 -26.578125 L 18.421875 -26.578125 L 22.8125 -18.890625 L 21.375 -17.71875 L 20.3125 -19.09375 C 17.125 -21.632812 14.640625 -22.90625 12.859375 -22.90625 C 11.078125 -22.90625 9.625 -22.554688 8.5 -21.859375 C 7.382812 -21.171875 6.828125 -20.507812 6.828125 -19.875 C 6.828125 -19.25 7.207031 -18.441406 7.96875 -17.453125 C 8.726562 -16.472656 10.507812 -15.660156 13.3125 -15.015625 C 16.113281 -14.367188 18.140625 -13.742188 19.390625 -13.140625 C 22.078125 -11.773438 23.421875 -9.703125 23.421875 -6.921875 L 23.421875 -6.765625 C 23.421875 -4.660156 22.460938 -2.929688 20.546875 -1.578125 C 18.628906 -0.222656 16.140625 0.453125 13.078125 0.453125 C 11.554688 0.453125 9.863281 0.015625 8 -0.859375 L 8.046875 -0.765625 L 8.140625 -0.609375 L 8.09375 -0.609375 C 8.125 -0.503906 8.140625 -0.273438 8.140625 0.078125 C 8.140625 0.429688 8.242188 0.757812 8.453125 1.0625 L 5.90625 1.0625 L 1.53125 -6.625 L 2.953125 -7.78125 L 4.015625 -6.421875 L 7.4375 -4.015625 C 9.707031 -2.898438 11.691406 -2.34375 13.390625 -2.34375 Z M 13.390625 -2.34375 "/></g></g></g><g fill="#000000" fill-opacity="1"><g transform="translate(187.92884, 117.230826)"><g/></g></g><g fill="#000000" fill-opacity="1"><g transform="translate(187.49682, 286.215732)"><g/></g></g><g fill="#000000" fill-opacity="1"><g transform="translate(188.310505, 92.792748)"><g/></g></g></svg>