<svg xmlns="http://www.w3.org/2000/svg" xmlns:xlink="http://www.w3.org/1999/xlink" width="500" zoomAndPan="magnify" viewBox="0 0 375 374.999991" height="500" preserveAspectRatio="xMidYMid meet" version="1.0"><defs><clipPath id="2bc3548044"><path d="M 165.964844 40 L 213.964844 40 L 213.964844 219 L 165.964844 219 Z M 165.964844 40 " clip-rule="nonzero"/></clipPath><clipPath id="0268c51c90"><path d="M 170 177 L 333 177 L 333 236 L 170 236 Z M 170 177 " clip-rule="nonzero"/></clipPath><clipPath id="beb7d1a645"><path d="M 332.042969 238.929688 L 166.851562 218.109375 L 172.289062 174.949219 L 337.484375 195.769531 Z M 332.042969 238.929688 " clip-rule="nonzero"/></clipPath><clipPath id="0a352003bc"><path d="M 332.042969 238.929688 L 166.851562 218.109375 L 172.289062 174.949219 L 337.484375 195.769531 Z M 332.042969 238.929688 " clip-rule="nonzero"/></clipPath><clipPath id="eb6de37e15"><path d="M 172 179 L 331 179 L 331 235 L 172 235 Z M 172 179 " clip-rule="nonzero"/></clipPath><clipPath id="6e99fabe3e"><path d="M 332.042969 238.929688 L 166.851562 218.109375 L 172.289062 174.949219 L 337.484375 195.769531 Z M 332.042969 238.929688 " clip-rule="nonzero"/></clipPath><clipPath id="cb10248b67"><path d="M 332.042969 238.929688 L 166.851562 218.109375 L 172.289062 174.949219 L 337.484375 195.769531 Z M 332.042969 238.929688 " clip-rule="nonzero"/></clipPath></defs><path fill="#df7919" d="M 375 187.5 C 375 190.570312 374.925781 193.636719 374.773438 196.699219 C 374.625 199.765625 374.398438 202.824219 374.097656 205.878906 C 373.796875 208.933594 373.421875 211.976562 372.96875 215.011719 C 372.519531 218.046875 371.996094 221.070312 371.398438 224.078125 C 370.796875 227.089844 370.125 230.082031 369.378906 233.058594 C 368.636719 236.035156 367.816406 238.992188 366.925781 241.929688 C 366.035156 244.863281 365.074219 247.777344 364.039062 250.667969 C 363.003906 253.554688 361.902344 256.417969 360.726562 259.253906 C 359.554688 262.089844 358.308594 264.890625 356.996094 267.667969 C 355.6875 270.441406 354.304688 273.179688 352.859375 275.886719 C 351.414062 278.59375 349.902344 281.261719 348.324219 283.894531 C 346.746094 286.527344 345.105469 289.117188 343.402344 291.667969 C 341.695312 294.222656 339.929688 296.730469 338.101562 299.195312 C 336.273438 301.660156 334.386719 304.078125 332.4375 306.449219 C 330.492188 308.820312 328.488281 311.144531 326.429688 313.417969 C 324.367188 315.691406 322.253906 317.914062 320.082031 320.082031 C 317.914062 322.253906 315.691406 324.367188 313.417969 326.429688 C 311.144531 328.488281 308.820312 330.492188 306.449219 332.4375 C 304.078125 334.386719 301.660156 336.273438 299.195312 338.101562 C 296.730469 339.929688 294.222656 341.695312 291.667969 343.402344 C 289.117188 345.105469 286.527344 346.746094 283.894531 348.324219 C 281.261719 349.902344 278.59375 351.414062 275.886719 352.859375 C 273.179688 354.308594 270.441406 355.6875 267.667969 356.996094 C 264.890625 358.308594 262.089844 359.554688 259.253906 360.726562 C 256.417969 361.902344 253.554688 363.003906 250.667969 364.039062 C 247.777344 365.074219 244.863281 366.035156 241.929688 366.925781 C 238.992188 367.816406 236.035156 368.636719 233.058594 369.378906 C 230.082031 370.125 227.089844 370.796875 224.078125 371.398438 C 221.070312 371.996094 218.046875 372.519531 215.011719 372.96875 C 211.976562 373.421875 208.933594 373.796875 205.878906 374.097656 C 202.824219 374.398438 199.765625 374.625 196.699219 374.773438 C 193.636719 374.925781 190.570312 375 187.5 375 C 184.429688 375 181.363281 374.925781 178.300781 374.773438 C 175.234375 374.625 172.175781 374.398438 169.121094 374.097656 C 166.066406 373.796875 163.023438 373.421875 159.988281 372.96875 C 156.953125 372.519531 153.929688 371.996094 150.921875 371.398438 C 147.910156 370.796875 144.917969 370.125 141.941406 369.378906 C 138.964844 368.636719 136.007812 367.816406 133.070312 366.925781 C 130.136719 366.035156 127.222656 365.074219 124.332031 364.039062 C 121.445312 363.003906 118.582031 361.902344 115.746094 360.726562 C 112.910156 359.554688 110.105469 358.308594 107.332031 356.996094 C 104.558594 355.6875 101.820312 354.308594 99.113281 352.859375 C 96.40625 351.414062 93.738281 349.902344 91.105469 348.324219 C 88.472656 346.746094 85.882812 345.105469 83.332031 343.402344 C 80.777344 341.695312 78.269531 339.929688 75.804688 338.101562 C 73.339844 336.273438 70.921875 334.386719 68.550781 332.4375 C 66.179688 330.492188 63.855469 328.488281 61.582031 326.429688 C 59.308594 324.367188 57.085938 322.253906 54.917969 320.082031 C 52.746094 317.914062 50.632812 315.691406 48.570312 313.417969 C 46.511719 311.144531 44.507812 308.820312 42.558594 306.449219 C 40.613281 304.078125 38.726562 301.660156 36.898438 299.195312 C 35.070312 296.730469 33.304688 294.222656 31.597656 291.667969 C 29.894531 289.117188 28.253906 286.527344 26.675781 283.894531 C 25.097656 281.261719 23.585938 278.59375 22.140625 275.886719 C 20.691406 273.179688 19.3125 270.441406 18.003906 267.667969 C 16.691406 264.890625 15.445312 262.089844 14.273438 259.253906 C 13.097656 256.417969 11.996094 253.554688 10.960938 250.667969 C 9.925781 247.777344 8.964844 244.863281 8.074219 241.929688 C 7.183594 238.992188 6.363281 236.035156 5.617188 233.058594 C 4.875 230.082031 4.203125 227.089844 3.601562 224.078125 C 3.003906 221.070312 2.480469 218.046875 2.03125 215.011719 C 1.578125 211.976562 1.203125 208.933594 0.902344 205.878906 C 0.601562 202.824219 0.375 199.765625 0.226562 196.699219 C 0.0742188 193.636719 0 190.570312 0 187.5 C 0 184.429688 0.0742188 181.363281 0.226562 178.300781 C 0.375 175.234375 0.601562 172.175781 0.902344 169.121094 C 1.203125 166.066406 1.578125 163.023438 2.03125 159.988281 C 2.480469 156.953125 3.003906 153.929688 3.601562 150.921875 C 4.203125 147.910156 4.875 144.917969 5.617188 141.941406 C 6.363281 138.964844 7.183594 136.007812 8.074219 133.070312 C 8.964844 130.136719 9.925781 127.222656 10.960938 124.332031 C 11.996094 121.445312 13.097656 118.582031 14.273438 115.746094 C 15.445312 112.910156 16.691406 110.105469 18.003906 107.332031 C 19.3125 104.558594 20.691406 101.820312 22.140625 99.113281 C 23.585938 96.40625 25.097656 93.738281 26.675781 91.105469 C 28.253906 88.472656 29.894531 85.882812 31.597656 83.332031 C 33.304688 80.777344 35.070312 78.269531 36.898438 75.804688 C 38.726562 73.339844 40.613281 70.921875 42.558594 68.550781 C 44.507812 66.179688 46.511719 63.855469 48.570312 61.582031 C 50.632812 59.308594 52.746094 57.085938 54.917969 54.917969 C 57.085938 52.746094 59.308594 50.632812 61.582031 48.570312 C 63.855469 46.511719 66.179688 44.507812 68.550781 42.558594 C 70.921875 40.613281 73.339844 38.726562 75.804688 36.898438 C 78.269531 35.070312 80.777344 33.304688 83.332031 31.597656 C 85.882812 29.894531 88.472656 28.253906 91.105469 26.675781 C 93.738281 25.097656 96.40625 23.585938 99.113281 22.140625 C 101.820312 20.691406 104.558594 19.3125 107.332031 18.003906 C 110.105469 16.691406 112.910156 15.445312 115.746094 14.273438 C 118.582031 13.097656 121.445312 11.996094 124.332031 10.960938 C 127.222656 9.925781 130.136719 8.964844 133.070312 8.074219 C 136.007812 7.183594 138.964844 6.363281 141.941406 5.617188 C 144.917969 4.875 147.910156 4.203125 150.921875 3.601562 C 153.929688 3.003906 156.953125 2.480469 159.988281 2.03125 C 163.023438 1.578125 166.066406 1.203125 169.121094 0.902344 C 172.175781 0.601562 175.234375 0.375 178.300781 0.226562 C 181.363281 0.0742188 184.429688 0 187.5 0 C 190.570312 0 193.636719 0.0742188 196.699219 0.226562 C 199.765625 0.375 202.824219 0.601562 205.878906 0.902344 C 208.933594 1.203125 211.976562 1.578125 215.011719 2.03125 C 218.046875 2.480469 221.070312 3.003906 224.078125 3.601562 C 227.089844 4.203125 230.082031 4.875 233.058594 5.617188 C 236.035156 6.363281 238.992188 7.183594 241.929688 8.074219 C 244.863281 8.964844 247.777344 9.925781 250.667969 10.960938 C 253.554688 11.996094 256.417969 13.097656 259.253906 14.273438 C 262.089844 15.445312 264.890625 16.691406 267.667969 18.003906 C 270.441406 19.3125 273.179688 20.691406 275.886719 22.140625 C 278.59375 23.585938 281.261719 25.097656 283.894531 26.675781 C 286.527344 28.253906 289.117188 29.894531 291.667969 31.597656 C 294.222656 33.304688 296.730469 35.070312 299.195312 36.898438 C 301.660156 38.726562 304.078125 40.613281 306.449219 42.558594 C 308.820312 44.507812 311.144531 46.511719 313.417969 48.570312 C 315.691406 50.632812 317.914062 52.746094 320.082031 54.917969 C 322.253906 57.085938 324.367188 59.308594 326.429688 61.582031 C 328.488281 63.855469 330.492188 66.179688 332.4375 68.550781 C 334.386719 70.921875 336.273438 73.339844 338.101562 75.804688 C 339.929688 78.269531 341.695312 80.777344 343.402344 83.332031 C 345.105469 85.882812 346.746094 88.472656 348.324219 91.105469 C 349.902344 93.738281 351.414062 96.40625 352.859375 99.113281 C 354.304688 101.820312 355.6875 104.558594 356.996094 107.332031 C 358.308594 110.105469 359.554688 112.910156 360.726562 115.746094 C 361.902344 118.582031 363.003906 121.445312 364.039062 124.332031 C 365.074219 127.222656 366.035156 130.136719 366.925781 133.070312 C 367.816406 136.007812 368.636719 138.964844 369.378906 141.941406 C 370.125 144.917969 370.796875 147.910156 371.398438 150.921875 C 371.996094 153.929688 372.519531 156.953125 372.96875 159.988281 C 373.421875 163.023438 373.796875 166.066406 374.097656 169.121094 C 374.398438 172.175781 374.625 175.234375 374.773438 178.300781 C 374.925781 181.363281 375 184.429688 375 187.5 Z M 375 187.5 " fill-opacity="1" fill-rule="nonzero"/><g clip-path="url(#2bc3548044)"><path fill="#ffffff" d="M 166 129.507812 C 166 108.746094 165.964844 87.980469 166 67.214844 C 166 59.160156 168.761719 52.164062 174.769531 46.632812 C 183.941406 38.175781 197.535156 38.613281 206.226562 47.621094 C 210.796875 52.382812 213.226562 58.097656 213.851562 64.578125 C 213.964844 65.714844 213.964844 66.847656 213.964844 67.984375 C 213.964844 109.183594 213.964844 150.421875 213.964844 191.621094 C 213.964844 198.542969 211.902344 204.765625 207.371094 210.113281 C 203.5 214.65625 198.675781 217.511719 192.671875 218.246094 C 185.96875 219.085938 180.074219 217.074219 175.0625 212.679688 C 169.941406 208.171875 167.140625 202.421875 166.222656 195.722656 C 166 194.148438 165.964844 192.609375 165.964844 191.035156 C 166 170.527344 166 150.015625 166 129.507812 Z M 212.195312 129.582031 C 212.195312 108.855469 212.195312 88.089844 212.195312 67.363281 C 212.195312 66.261719 212.160156 65.164062 212.046875 64.066406 C 211.347656 58.351562 209.136719 53.261719 205.121094 49.050781 C 201.476562 45.242188 197.054688 42.863281 191.714844 42.457031 C 184.417969 41.910156 178.488281 44.730469 173.847656 50.222656 C 169.648438 55.203125 167.804688 61.0625 167.804688 67.507812 C 167.804688 108.855469 167.804688 150.164062 167.804688 191.511719 C 167.804688 197.40625 169.351562 202.863281 172.890625 207.625 C 176.648438 212.679688 181.546875 215.863281 187.917969 216.523438 C 193.925781 217.144531 199.191406 215.316406 203.648438 211.359375 C 209.433594 206.195312 212.121094 199.605469 212.160156 191.949219 C 212.230469 171.148438 212.195312 150.347656 212.195312 129.582031 Z M 212.195312 129.582031 " fill-opacity="1" fill-rule="evenodd"/></g><path fill="#ffffff" d="M 212.195312 129.582031 C 212.195312 150.382812 212.230469 171.148438 212.195312 191.949219 C 212.195312 199.605469 209.46875 206.195312 203.6875 211.359375 C 199.226562 215.351562 193.925781 217.183594 187.957031 216.523438 C 181.621094 215.863281 176.683594 212.640625 172.925781 207.625 C 169.390625 202.863281 167.84375 197.40625 167.84375 191.511719 C 167.84375 150.164062 167.84375 108.855469 167.84375 67.507812 C 167.84375 61.0625 169.683594 55.203125 173.882812 50.222656 C 178.488281 44.730469 184.417969 41.910156 191.714844 42.457031 C 197.019531 42.863281 201.4375 45.242188 205.085938 49.050781 C 209.136719 53.261719 211.347656 58.351562 212.011719 64.101562 C 212.160156 65.199219 212.160156 66.300781 212.160156 67.398438 C 212.195312 88.089844 212.195312 108.855469 212.195312 129.582031 Z M 212.195312 129.582031 " fill-opacity="1" fill-rule="evenodd"/><g clip-path="url(#0268c51c90)"><g clip-path="url(#beb7d1a645)"><g clip-path="url(#0a352003bc)"><path fill="#ffffff" d="M 254.085938 185.292969 C 272.90625 187.664062 291.726562 190.003906 310.542969 192.410156 C 317.847656 193.328125 323.871094 196.613281 328.203125 202.644531 C 334.832031 211.855469 332.894531 224.027344 323.742188 230.816406 C 318.910156 234.378906 313.457031 235.914062 307.511719 235.734375 C 306.46875 235.707031 305.441406 235.574219 304.410156 235.445312 C 267.070312 230.738281 229.699219 226.03125 192.355469 221.324219 C 186.082031 220.53125 180.675781 217.964844 176.34375 213.28125 C 172.664062 209.285156 170.621094 204.621094 170.640625 199.136719 C 170.636719 193.011719 173.128906 187.941406 177.679688 183.941406 C 182.34375 179.851562 187.871094 177.992188 194.050781 177.929688 C 195.503906 177.910156 196.898438 178.050781 198.328125 178.230469 C 216.910156 180.609375 235.496094 182.949219 254.085938 185.292969 Z M 248.785156 226.820312 C 267.570312 229.1875 286.390625 231.558594 305.175781 233.925781 C 306.171875 234.054688 307.171875 234.144531 308.179688 234.171875 C 313.4375 234.195312 318.300781 232.789062 322.574219 229.660156 C 326.4375 226.816406 329.097656 223.113281 330.066406 218.355469 C 331.390625 211.859375 329.507812 206.207031 325.054688 201.40625 C 321.015625 197.058594 315.914062 194.734375 310.074219 194 C 272.601562 189.273438 235.160156 184.554688 197.6875 179.832031 C 192.34375 179.160156 187.222656 179.929688 182.507812 182.5625 C 177.5 185.363281 174.058594 189.40625 172.738281 195.0625 C 171.492188 200.390625 172.554688 205.335938 175.636719 209.792969 C 179.660156 215.585938 185.328125 218.753906 192.261719 219.664062 C 211.105469 222.105469 229.964844 224.449219 248.785156 226.820312 Z M 248.785156 226.820312 " fill-opacity="1" fill-rule="evenodd"/></g></g></g><g clip-path="url(#eb6de37e15)"><g clip-path="url(#6e99fabe3e)"><g clip-path="url(#cb10248b67)"><path fill="#ffffff" d="M 248.785156 226.820312 C 229.929688 224.445312 211.105469 222.105469 192.257812 219.695312 C 185.320312 218.820312 179.65625 215.617188 175.632812 209.828125 C 172.519531 205.363281 171.460938 200.382812 172.734375 195.09375 C 174.050781 189.472656 177.53125 185.402344 182.503906 182.597656 C 187.21875 179.960938 192.339844 179.191406 197.683594 179.867188 C 235.15625 184.589844 272.597656 189.308594 310.070312 194.03125 C 315.910156 194.769531 321.011719 197.09375 325.050781 201.4375 C 329.507812 206.207031 331.390625 211.859375 330.066406 218.355469 C 329.101562 223.078125 326.441406 226.78125 322.578125 229.625 C 318.300781 232.789062 313.4375 234.195312 308.152344 234.132812 C 307.136719 234.140625 306.144531 234.015625 305.148438 233.890625 C 286.390625 231.558594 267.570312 229.1875 248.785156 226.820312 Z M 248.785156 226.820312 " fill-opacity="1" fill-rule="evenodd"/></g></g></g></svg>